<control>label_cc74=CutOff label_cc71=Resonance set_hdcc74=0.5 set_hdcc71=0.5 label_cc76=Vibrato Rate label_cc77=Vibrato Depth label_cc78=Vibrato Delay set_hdcc76=0.32 set_hdcc77=0.5 set_hdcc78=0.1 set_cc16=127 label_cc16=Agogo Lo set_cc17=127 label_cc17=No Wave set_cc18=127 label_cc18=No Wave set_cc19=127 label_cc19=No Wave
<group>lovel=1 hivel=127 volume=12 amp_velcurve_0=0 amp_velcurve_1=1 amp_velcurve_127=1 pitch_oncc136=0 fil_type=lpf_2p cutoff=11025 cutoff_cc74=6912 cutoff_curvecc74=1 cutoff_cc133=0 cutoff_curvecc133=133 eg4_cutoff=-5482.7716535 fil2_type=lpf_4p cutoff2=22050 eg4_sustain=4 resonance_oncc71=40 resonance_curvecc71=1 resonance=0 resonance_oncc131=0 group_amplitude=100 volume_curvecc131=201 volume_oncc131=23.015873 pan_keytrack=0 pan_oncc136=0 eg9_sustain=2 eg9_time1=0 eg9_time1_oncc78=5 eg9_level1=0 eg9_time2=0 eg9_time2_oncc78=5 eg9_level2=1 eg9_level2_oncc77=-2 lfo9_wave=1 lfo9_delay=0 lfo9_delay_oncc78=5 lfo9_fade=0 lfo9_fade_oncc78=5 lfo9_freq=0 lfo9_freq_oncc76=20 lfo9_pitch=0 lfo9_pitch_oncc77=555 lfo9_pitch_curvecc77=77 eg9_pitch_oncc77=3.5
<region>sample=../Sample/Wave84.wav lokey=0 hikey=0 pitch_keycenter=66 tune=-554 loop_mode=one_shot pan=0 eg2_cutoff=5472 eg2_sustain=4 eg2_time1=0 eg2_time2=0 eg2_time3=0.0489896 eg2_time4=0 eg2_time5=0 eg2_level1=0 eg2_level2=1 eg2_level3=0.9055118 eg2_level4=0.9055118 eg2_level5=1 eg2_cutoff_curvecc131=201 eg2_cutoff_oncc131=1042.2857143 eg3_amplitude=100 eg3_sustain=4 eg3_time1=0 eg3_time2=0 eg3_time3=1.3401096 eg3_time4=14.0009965 eg3_time5=0.9654495 eg3_level1=0 eg3_level2=1 eg3_level3=0.4156189 eg3_level4=0 eg3_level5=0 amplitude_cc16=83.4645669 ampeg_attack=0 ampeg_release=0.9654495 eg4_time1=0 eg4_time2=0 eg4_time3=1.3401096 eg4_time4=14.0009965 eg4_time5=0.9654495 eg4_level1=1 eg4_level2=1 eg4_level3=1 eg4_level4=1 eg4_level5=1
<region>sample=../Sample/Wave84.wav lokey=1 hikey=1 pitch_keycenter=66 tune=-554 loop_mode=one_shot pan=0 eg2_cutoff=5472 eg2_sustain=4 eg2_time1=0 eg2_time2=0 eg2_time3=0.0489896 eg2_time4=0 eg2_time5=0 eg2_level1=0 eg2_level2=1 eg2_level3=0.9055118 eg2_level4=0.9055118 eg2_level5=1 eg2_cutoff_curvecc131=201 eg2_cutoff_oncc131=1042.2857143 eg3_amplitude=100 eg3_sustain=4 eg3_time1=0 eg3_time2=0 eg3_time3=1.2992641 eg3_time4=13.5742579 eg3_time5=0.9360234 eg3_level1=0 eg3_level2=1 eg3_level3=0.4156189 eg3_level4=0 eg3_level5=0 amplitude_cc16=83.4645669 ampeg_attack=0 ampeg_release=0.9360234 eg4_time1=0 eg4_time2=0 eg4_time3=1.2992641 eg4_time4=13.5742579 eg4_time5=0.9360234 eg4_level1=1 eg4_level2=1 eg4_level3=1 eg4_level4=1 eg4_level5=1
<region>sample=../Sample/Wave84.wav lokey=2 hikey=2 pitch_keycenter=66 tune=-554 loop_mode=one_shot pan=0 eg2_cutoff=5472 eg2_sustain=4 eg2_time1=0 eg2_time2=0 eg2_time3=0.0489896 eg2_time4=0 eg2_time5=0 eg2_level1=0 eg2_level2=1 eg2_level3=0.9055118 eg2_level4=0.9055118 eg2_level5=1 eg2_cutoff_curvecc131=201 eg2_cutoff_oncc131=1042.2857143 eg3_amplitude=100 eg3_sustain=4 eg3_time1=0 eg3_time2=0 eg3_time3=1.2596637 eg3_time4=13.1605258 eg3_time5=0.9074942 eg3_level1=0 eg3_level2=1 eg3_level3=0.4156189 eg3_level4=0 eg3_level5=0 amplitude_cc16=83.4645669 ampeg_attack=0 ampeg_release=0.9074942 eg4_time1=0 eg4_time2=0 eg4_time3=1.2596637 eg4_time4=13.1605258 eg4_time5=0.9074942 eg4_level1=1 eg4_level2=1 eg4_level3=1 eg4_level4=1 eg4_level5=1
<region>sample=../Sample/Wave84.wav lokey=3 hikey=3 pitch_keycenter=66 tune=-554 loop_mode=one_shot pan=0 eg2_cutoff=5472 eg2_sustain=4 eg2_time1=0 eg2_time2=0 eg2_time3=0.0489896 eg2_time4=0 eg2_time5=0 eg2_level1=0 eg2_level2=1 eg2_level3=0.9055118 eg2_level4=0.9055118 eg2_level5=1 eg2_cutoff_curvecc131=201 eg2_cutoff_oncc131=1042.2857143 eg3_amplitude=100 eg3_sustain=4 eg3_time1=0 eg3_time2=0 eg3_time3=1.2212702 eg3_time4=12.759404 eg3_time5=0.8798345 eg3_level1=0 eg3_level2=1 eg3_level3=0.4156189 eg3_level4=0 eg3_level5=0 amplitude_cc16=83.4645669 ampeg_attack=0 ampeg_release=0.8798345 eg4_time1=0 eg4_time2=0 eg4_time3=1.2212702 eg4_time4=12.759404 eg4_time5=0.8798345 eg4_level1=1 eg4_level2=1 eg4_level3=1 eg4_level4=1 eg4_level5=1
<region>sample=../Sample/Wave84.wav lokey=4 hikey=4 pitch_keycenter=66 tune=-554 loop_mode=one_shot pan=0 eg2_cutoff=5472 eg2_sustain=4 eg2_time1=0 eg2_time2=0 eg2_time3=0.0489896 eg2_time4=0 eg2_time5=0 eg2_level1=0 eg2_level2=1 eg2_level3=0.9055118 eg2_level4=0.9055118 eg2_level5=1 eg2_cutoff_curvecc131=201 eg2_cutoff_oncc131=1042.2857143 eg3_amplitude=100 eg3_sustain=4 eg3_time1=0 eg3_time2=0 eg3_time3=1.1840469 eg3_time4=12.370508 eg3_time5=0.8530179 eg3_level1=0 eg3_level2=1 eg3_level3=0.4156189 eg3_level4=0 eg3_level5=0 amplitude_cc16=83.4645669 ampeg_attack=0 ampeg_release=0.8530179 eg4_time1=0 eg4_time2=0 eg4_time3=1.1840469 eg4_time4=12.370508 eg4_time5=0.8530179 eg4_level1=1 eg4_level2=1 eg4_level3=1 eg4_level4=1 eg4_level5=1
<region>sample=../Sample/Wave84.wav lokey=5 hikey=5 pitch_keycenter=66 tune=-554 loop_mode=one_shot pan=0 eg2_cutoff=5472 eg2_sustain=4 eg2_time1=0 eg2_time2=0 eg2_time3=0.0489896 eg2_time4=0 eg2_time5=0 eg2_level1=0 eg2_level2=1 eg2_level3=0.9055118 eg2_level4=0.9055118 eg2_level5=1 eg2_cutoff_curvecc131=201 eg2_cutoff_oncc131=1042.2857143 eg3_amplitude=100 eg3_sustain=4 eg3_time1=0 eg3_time2=0 eg3_time3=1.1479581 eg3_time4=11.9934652 eg3_time5=0.8270187 eg3_level1=0 eg3_level2=1 eg3_level3=0.4156189 eg3_level4=0 eg3_level5=0 amplitude_cc16=83.4645669 ampeg_attack=0 ampeg_release=0.8270187 eg4_time1=0 eg4_time2=0 eg4_time3=1.1479581 eg4_time4=11.9934652 eg4_time5=0.8270187 eg4_level1=1 eg4_level2=1 eg4_level3=1 eg4_level4=1 eg4_level5=1
<region>sample=../Sample/Wave84.wav lokey=6 hikey=6 pitch_keycenter=66 tune=-554 loop_mode=one_shot pan=0 eg2_cutoff=5472 eg2_sustain=4 eg2_time1=0 eg2_time2=0 eg2_time3=0.0489896 eg2_time4=0 eg2_time5=0 eg2_level1=0 eg2_level2=1 eg2_level3=0.9055118 eg2_level4=0.9055118 eg2_level5=1 eg2_cutoff_curvecc131=201 eg2_cutoff_oncc131=1042.2857143 eg3_amplitude=100 eg3_sustain=4 eg3_time1=0 eg3_time2=0 eg3_time3=1.1129693 eg3_time4=11.6279144 eg3_time5=0.8018118 eg3_level1=0 eg3_level2=1 eg3_level3=0.4156189 eg3_level4=0 eg3_level5=0 amplitude_cc16=83.4645669 ampeg_attack=0 ampeg_release=0.8018118 eg4_time1=0 eg4_time2=0 eg4_time3=1.1129693 eg4_time4=11.6279144 eg4_time5=0.8018118 eg4_level1=1 eg4_level2=1 eg4_level3=1 eg4_level4=1 eg4_level5=1
<region>sample=../Sample/Wave84.wav lokey=7 hikey=7 pitch_keycenter=66 tune=-554 loop_mode=one_shot pan=0 eg2_cutoff=5472 eg2_sustain=4 eg2_time1=0 eg2_time2=0 eg2_time3=0.0489896 eg2_time4=0 eg2_time5=0 eg2_level1=0 eg2_level2=1 eg2_level3=0.9055118 eg2_level4=0.9055118 eg2_level5=1 eg2_cutoff_curvecc131=201 eg2_cutoff_oncc131=1042.2857143 eg3_amplitude=100 eg3_sustain=4 eg3_time1=0 eg3_time2=0 eg3_time3=1.0790469 eg3_time4=11.2735053 eg3_time5=0.7773733 eg3_level1=0 eg3_level2=1 eg3_level3=0.4156189 eg3_level4=0 eg3_level5=0 amplitude_cc16=83.4645669 ampeg_attack=0 ampeg_release=0.7773733 eg4_time1=0 eg4_time2=0 eg4_time3=1.0790469 eg4_time4=11.2735053 eg4_time5=0.7773733 eg4_level1=1 eg4_level2=1 eg4_level3=1 eg4_level4=1 eg4_level5=1
<region>sample=../Sample/Wave84.wav lokey=8 hikey=8 pitch_keycenter=66 tune=-554 loop_mode=one_shot pan=0 eg2_cutoff=5472 eg2_sustain=4 eg2_time1=0 eg2_time2=0 eg2_time3=0.0489896 eg2_time4=0 eg2_time5=0 eg2_level1=0 eg2_level2=1 eg2_level3=0.9055118 eg2_level4=0.9055118 eg2_level5=1 eg2_cutoff_curvecc131=201 eg2_cutoff_oncc131=1042.2857143 eg3_amplitude=100 eg3_sustain=4 eg3_time1=0 eg3_time2=0 eg3_time3=1.0461585 eg3_time4=10.9298982 eg3_time5=0.7536796 eg3_level1=0 eg3_level2=1 eg3_level3=0.4156189 eg3_level4=0 eg3_level5=0 amplitude_cc16=83.4645669 ampeg_attack=0 ampeg_release=0.7536796 eg4_time1=0 eg4_time2=0 eg4_time3=1.0461585 eg4_time4=10.9298982 eg4_time5=0.7536796 eg4_level1=1 eg4_level2=1 eg4_level3=1 eg4_level4=1 eg4_level5=1
<region>sample=../Sample/Wave84.wav lokey=9 hikey=9 pitch_keycenter=66 tune=-554 loop_mode=one_shot pan=0 eg2_cutoff=5472 eg2_sustain=4 eg2_time1=0 eg2_time2=0 eg2_time3=0.0489896 eg2_time4=0 eg2_time5=0 eg2_level1=0 eg2_level2=1 eg2_level3=0.9055118 eg2_level4=0.9055118 eg2_level5=1 eg2_cutoff_curvecc131=201 eg2_cutoff_oncc131=1042.2857143 eg3_amplitude=100 eg3_sustain=4 eg3_time1=0 eg3_time2=0 eg3_time3=1.0142724 eg3_time4=10.5967641 eg3_time5=0.730708 eg3_level1=0 eg3_level2=1 eg3_level3=0.4156189 eg3_level4=0 eg3_level5=0 amplitude_cc16=83.4645669 ampeg_attack=0 ampeg_release=0.730708 eg4_time1=0 eg4_time2=0 eg4_time3=1.0142724 eg4_time4=10.5967641 eg4_time5=0.730708 eg4_level1=1 eg4_level2=1 eg4_level3=1 eg4_level4=1 eg4_level5=1
<region>sample=../Sample/Wave84.wav lokey=10 hikey=10 pitch_keycenter=66 tune=-554 loop_mode=one_shot pan=0 eg2_cutoff=5472 eg2_sustain=4 eg2_time1=0 eg2_time2=0 eg2_time3=0.0489896 eg2_time4=0 eg2_time5=0 eg2_level1=0 eg2_level2=1 eg2_level3=0.9055118 eg2_level4=0.9055118 eg2_level5=1 eg2_cutoff_curvecc131=201 eg2_cutoff_oncc131=1042.2857143 eg3_amplitude=100 eg3_sustain=4 eg3_time1=0 eg3_time2=0 eg3_time3=0.9833583 eg3_time4=10.2737835 eg3_time5=0.7084367 eg3_level1=0 eg3_level2=1 eg3_level3=0.4156189 eg3_level4=0 eg3_level5=0 amplitude_cc16=83.4645669 ampeg_attack=0 ampeg_release=0.7084367 eg4_time1=0 eg4_time2=0 eg4_time3=0.9833583 eg4_time4=10.2737835 eg4_time5=0.7084367 eg4_level1=1 eg4_level2=1 eg4_level3=1 eg4_level4=1 eg4_level5=1
<region>sample=../Sample/Wave84.wav lokey=11 hikey=11 pitch_keycenter=66 tune=-554 loop_mode=one_shot pan=0 eg2_cutoff=5472 eg2_sustain=4 eg2_time1=0 eg2_time2=0 eg2_time3=0.0489896 eg2_time4=0 eg2_time5=0 eg2_level1=0 eg2_level2=1 eg2_level3=0.9055118 eg2_level4=0.9055118 eg2_level5=1 eg2_cutoff_curvecc131=201 eg2_cutoff_oncc131=1042.2857143 eg3_amplitude=100 eg3_sustain=4 eg3_time1=0 eg3_time2=0 eg3_time3=0.9533863 eg3_time4=9.9606472 eg3_time5=0.6868441 eg3_level1=0 eg3_level2=1 eg3_level3=0.4156189 eg3_level4=0 eg3_level5=0 amplitude_cc16=83.4645669 ampeg_attack=0 ampeg_release=0.6868441 eg4_time1=0 eg4_time2=0 eg4_time3=0.9533863 eg4_time4=9.9606472 eg4_time5=0.6868441 eg4_level1=1 eg4_level2=1 eg4_level3=1 eg4_level4=1 eg4_level5=1
<region>sample=../Sample/Wave84.wav lokey=12 hikey=12 pitch_keycenter=66 tune=-554 loop_mode=one_shot pan=0 eg2_cutoff=5472 eg2_sustain=4 eg2_time1=0 eg2_time2=0 eg2_time3=0.0489896 eg2_time4=0 eg2_time5=0 eg2_level1=0 eg2_level2=1 eg2_level3=0.9055118 eg2_level4=0.9055118 eg2_level5=1 eg2_cutoff_curvecc131=201 eg2_cutoff_oncc131=1042.2857143 eg3_amplitude=100 eg3_sustain=4 eg3_time1=0 eg3_time2=0 eg3_time3=0.9243279 eg3_time4=9.657055 eg3_time5=0.6659097 eg3_level1=0 eg3_level2=1 eg3_level3=0.4156189 eg3_level4=0 eg3_level5=0 amplitude_cc16=83.4645669 ampeg_attack=0 ampeg_release=0.6659097 eg4_time1=0 eg4_time2=0 eg4_time3=0.9243279 eg4_time4=9.657055 eg4_time5=0.6659097 eg4_level1=1 eg4_level2=1 eg4_level3=1 eg4_level4=1 eg4_level5=1
<region>sample=../Sample/Wave84.wav lokey=13 hikey=13 pitch_keycenter=66 tune=-554 loop_mode=one_shot pan=0 eg2_cutoff=5472 eg2_sustain=4 eg2_time1=0 eg2_time2=0 eg2_time3=0.0489896 eg2_time4=0 eg2_time5=0 eg2_level1=0 eg2_level2=1 eg2_level3=0.9055118 eg2_level4=0.9055118 eg2_level5=1 eg2_cutoff_curvecc131=201 eg2_cutoff_oncc131=1042.2857143 eg3_amplitude=100 eg3_sustain=4 eg3_time1=0 eg3_time2=0 eg3_time3=0.8961552 eg3_time4=9.362716 eg3_time5=0.6456133 eg3_level1=0 eg3_level2=1 eg3_level3=0.4156189 eg3_level4=0 eg3_level5=0 amplitude_cc16=83.4645669 ampeg_attack=0 ampeg_release=0.6456133 eg4_time1=0 eg4_time2=0 eg4_time3=0.8961552 eg4_time4=9.362716 eg4_time5=0.6456133 eg4_level1=1 eg4_level2=1 eg4_level3=1 eg4_level4=1 eg4_level5=1
<region>sample=../Sample/Wave84.wav lokey=14 hikey=14 pitch_keycenter=66 tune=-554 loop_mode=one_shot pan=0 eg2_cutoff=5472 eg2_sustain=4 eg2_time1=0 eg2_time2=0 eg2_time3=0.0489896 eg2_time4=0 eg2_time5=0 eg2_level1=0 eg2_level2=1 eg2_level3=0.9055118 eg2_level4=0.9055118 eg2_level5=1 eg2_cutoff_curvecc131=201 eg2_cutoff_oncc131=1042.2857143 eg3_amplitude=100 eg3_sustain=4 eg3_time1=0 eg3_time2=0 eg3_time3=0.8688411 eg3_time4=9.0773482 eg3_time5=0.6259356 eg3_level1=0 eg3_level2=1 eg3_level3=0.4156189 eg3_level4=0 eg3_level5=0 amplitude_cc16=83.4645669 ampeg_attack=0 ampeg_release=0.6259356 eg4_time1=0 eg4_time2=0 eg4_time3=0.8688411 eg4_time4=9.0773482 eg4_time5=0.6259356 eg4_level1=1 eg4_level2=1 eg4_level3=1 eg4_level4=1 eg4_level5=1
<region>sample=../Sample/Wave84.wav lokey=15 hikey=15 pitch_keycenter=66 tune=-554 loop_mode=one_shot pan=0 eg2_cutoff=5472 eg2_sustain=4 eg2_time1=0 eg2_time2=0 eg2_time3=0.0489896 eg2_time4=0 eg2_time5=0 eg2_level1=0 eg2_level2=1 eg2_level3=0.9055118 eg2_level4=0.9055118 eg2_level5=1 eg2_cutoff_curvecc131=201 eg2_cutoff_oncc131=1042.2857143 eg3_amplitude=100 eg3_sustain=4 eg3_time1=0 eg3_time2=0 eg3_time3=0.8423595 eg3_time4=8.8006782 eg3_time5=0.6068576 eg3_level1=0 eg3_level2=1 eg3_level3=0.4156189 eg3_level4=0 eg3_level5=0 amplitude_cc16=83.4645669 ampeg_attack=0 ampeg_release=0.6068576 eg4_time1=0 eg4_time2=0 eg4_time3=0.8423595 eg4_time4=8.8006782 eg4_time5=0.6068576 eg4_level1=1 eg4_level2=1 eg4_level3=1 eg4_level4=1 eg4_level5=1
<region>sample=../Sample/Wave84.wav lokey=16 hikey=16 pitch_keycenter=66 tune=-554 loop_mode=one_shot pan=0 eg2_cutoff=5472 eg2_sustain=4 eg2_time1=0 eg2_time2=0 eg2_time3=0.0489896 eg2_time4=0 eg2_time5=0 eg2_level1=0 eg2_level2=1 eg2_level3=0.9055118 eg2_level4=0.9055118 eg2_level5=1 eg2_cutoff_curvecc131=201 eg2_cutoff_oncc131=1042.2857143 eg3_amplitude=100 eg3_sustain=4 eg3_time1=0 eg3_time2=0 eg3_time3=0.8166851 eg3_time4=8.5324409 eg3_time5=0.588361 eg3_level1=0 eg3_level2=1 eg3_level3=0.4156189 eg3_level4=0 eg3_level5=0 amplitude_cc16=83.4645669 ampeg_attack=0 ampeg_release=0.588361 eg4_time1=0 eg4_time2=0 eg4_time3=0.8166851 eg4_time4=8.5324409 eg4_time5=0.588361 eg4_level1=1 eg4_level2=1 eg4_level3=1 eg4_level4=1 eg4_level5=1
<region>sample=../Sample/Wave84.wav lokey=17 hikey=17 pitch_keycenter=66 tune=-554 loop_mode=one_shot pan=0 eg2_cutoff=5472 eg2_sustain=4 eg2_time1=0 eg2_time2=0 eg2_time3=0.0489896 eg2_time4=0 eg2_time5=0 eg2_level1=0 eg2_level2=1 eg2_level3=0.9055118 eg2_level4=0.9055118 eg2_level5=1 eg2_cutoff_curvecc131=201 eg2_cutoff_oncc131=1042.2857143 eg3_amplitude=100 eg3_sustain=4 eg3_time1=0 eg3_time2=0 eg3_time3=0.7917932 eg3_time4=8.2723792 eg3_time5=0.5704283 eg3_level1=0 eg3_level2=1 eg3_level3=0.4156189 eg3_level4=0 eg3_level5=0 amplitude_cc16=83.4645669 ampeg_attack=0 ampeg_release=0.5704283 eg4_time1=0 eg4_time2=0 eg4_time3=0.7917932 eg4_time4=8.2723792 eg4_time5=0.5704283 eg4_level1=1 eg4_level2=1 eg4_level3=1 eg4_level4=1 eg4_level5=1
<region>sample=../Sample/Wave84.wav lokey=18 hikey=18 pitch_keycenter=66 tune=-554 loop_mode=one_shot pan=0 eg2_cutoff=5472 eg2_sustain=4 eg2_time1=0 eg2_time2=0 eg2_time3=0.0489896 eg2_time4=0 eg2_time5=0 eg2_level1=0 eg2_level2=1 eg2_level3=0.9055118 eg2_level4=0.9055118 eg2_level5=1 eg2_cutoff_curvecc131=201 eg2_cutoff_oncc131=1042.2857143 eg3_amplitude=100 eg3_sustain=4 eg3_time1=0 eg3_time2=0 eg3_time3=0.7676601 eg3_time4=8.020244 eg3_time5=0.5530421 eg3_level1=0 eg3_level2=1 eg3_level3=0.4156189 eg3_level4=0 eg3_level5=0 amplitude_cc16=83.4645669 ampeg_attack=0 ampeg_release=0.5530421 eg4_time1=0 eg4_time2=0 eg4_time3=0.7676601 eg4_time4=8.020244 eg4_time5=0.5530421 eg4_level1=1 eg4_level2=1 eg4_level3=1 eg4_level4=1 eg4_level5=1
<region>sample=../Sample/Wave84.wav lokey=19 hikey=19 pitch_keycenter=66 tune=-554 loop_mode=one_shot pan=0 eg2_cutoff=5472 eg2_sustain=4 eg2_time1=0 eg2_time2=0 eg2_time3=0.0489896 eg2_time4=0 eg2_time5=0 eg2_level1=0 eg2_level2=1 eg2_level3=0.9055118 eg2_level4=0.9055118 eg2_level5=1 eg2_cutoff_curvecc131=201 eg2_cutoff_oncc131=1042.2857143 eg3_amplitude=100 eg3_sustain=4 eg3_time1=0 eg3_time2=0 eg3_time3=0.7442624 eg3_time4=7.7757937 eg3_time5=0.5361859 eg3_level1=0 eg3_level2=1 eg3_level3=0.4156189 eg3_level4=0 eg3_level5=0 amplitude_cc16=83.4645669 ampeg_attack=0 ampeg_release=0.5361859 eg4_time1=0 eg4_time2=0 eg4_time3=0.7442624 eg4_time4=7.7757937 eg4_time5=0.5361859 eg4_level1=1 eg4_level2=1 eg4_level3=1 eg4_level4=1 eg4_level5=1
<region>sample=../Sample/Wave84.wav lokey=20 hikey=20 pitch_keycenter=66 tune=-554 loop_mode=one_shot pan=0 eg2_cutoff=5472 eg2_sustain=4 eg2_time1=0 eg2_time2=0 eg2_time3=0.0489896 eg2_time4=0 eg2_time5=0 eg2_level1=0 eg2_level2=1 eg2_level3=0.9055118 eg2_level4=0.9055118 eg2_level5=1 eg2_cutoff_curvecc131=201 eg2_cutoff_oncc131=1042.2857143 eg3_amplitude=100 eg3_sustain=4 eg3_time1=0 eg3_time2=0 eg3_time3=0.7215779 eg3_time4=7.538794 eg3_time5=0.5198434 eg3_level1=0 eg3_level2=1 eg3_level3=0.4156189 eg3_level4=0 eg3_level5=0 amplitude_cc16=83.4645669 ampeg_attack=0 ampeg_release=0.5198434 eg4_time1=0 eg4_time2=0 eg4_time3=0.7215779 eg4_time4=7.538794 eg4_time5=0.5198434 eg4_level1=1 eg4_level2=1 eg4_level3=1 eg4_level4=1 eg4_level5=1
<region>sample=../Sample/Wave84.wav lokey=21 hikey=21 pitch_keycenter=66 tune=-554 loop_mode=one_shot pan=0 eg2_cutoff=5472 eg2_sustain=4 eg2_time1=0 eg2_time2=0 eg2_time3=0.0489896 eg2_time4=0 eg2_time5=0 eg2_level1=0 eg2_level2=1 eg2_level3=0.9055118 eg2_level4=0.9055118 eg2_level5=1 eg2_cutoff_curvecc131=201 eg2_cutoff_oncc131=1042.2857143 eg3_amplitude=100 eg3_sustain=4 eg3_time1=0 eg3_time2=0 eg3_time3=0.6995848 eg3_time4=7.3090178 eg3_time5=0.503999 eg3_level1=0 eg3_level2=1 eg3_level3=0.4156189 eg3_level4=0 eg3_level5=0 amplitude_cc16=83.4645669 ampeg_attack=0 ampeg_release=0.503999 eg4_time1=0 eg4_time2=0 eg4_time3=0.6995848 eg4_time4=7.3090178 eg4_time5=0.503999 eg4_level1=1 eg4_level2=1 eg4_level3=1 eg4_level4=1 eg4_level5=1
<region>sample=../Sample/Wave84.wav lokey=22 hikey=22 pitch_keycenter=66 tune=-554 loop_mode=one_shot pan=0 eg2_cutoff=5472 eg2_sustain=4 eg2_time1=0 eg2_time2=0 eg2_time3=0.0489896 eg2_time4=0 eg2_time5=0 eg2_level1=0 eg2_level2=1 eg2_level3=0.9055118 eg2_level4=0.9055118 eg2_level5=1 eg2_cutoff_curvecc131=201 eg2_cutoff_oncc131=1042.2857143 eg3_amplitude=100 eg3_sustain=4 eg3_time1=0 eg3_time2=0 eg3_time3=0.6782621 eg3_time4=7.086245 eg3_time5=0.4886375 eg3_level1=0 eg3_level2=1 eg3_level3=0.4156189 eg3_level4=0 eg3_level5=0 amplitude_cc16=83.4645669 ampeg_attack=0 ampeg_release=0.4886375 eg4_time1=0 eg4_time2=0 eg4_time3=0.6782621 eg4_time4=7.086245 eg4_time5=0.4886375 eg4_level1=1 eg4_level2=1 eg4_level3=1 eg4_level4=1 eg4_level5=1
<region>sample=../Sample/Wave84.wav lokey=23 hikey=23 pitch_keycenter=66 tune=-554 loop_mode=one_shot pan=0 eg2_cutoff=5472 eg2_sustain=4 eg2_time1=0 eg2_time2=0 eg2_time3=0.0489896 eg2_time4=0 eg2_time5=0 eg2_level1=0 eg2_level2=1 eg2_level3=0.9055118 eg2_level4=0.9055118 eg2_level5=1 eg2_cutoff_curvecc131=201 eg2_cutoff_oncc131=1042.2857143 eg3_amplitude=100 eg3_sustain=4 eg3_time1=0 eg3_time2=0 eg3_time3=0.6575892 eg3_time4=6.8702622 eg3_time5=0.4737442 eg3_level1=0 eg3_level2=1 eg3_level3=0.4156189 eg3_level4=0 eg3_level5=0 amplitude_cc16=83.4645669 ampeg_attack=0 ampeg_release=0.4737442 eg4_time1=0 eg4_time2=0 eg4_time3=0.6575892 eg4_time4=6.8702622 eg4_time5=0.4737442 eg4_level1=1 eg4_level2=1 eg4_level3=1 eg4_level4=1 eg4_level5=1
<region>sample=../Sample/Wave84.wav lokey=24 hikey=24 pitch_keycenter=66 tune=-554 loop_mode=one_shot pan=0 eg2_cutoff=5472 eg2_sustain=4 eg2_time1=0 eg2_time2=0 eg2_time3=0.0489896 eg2_time4=0 eg2_time5=0 eg2_level1=0 eg2_level2=1 eg2_level3=0.9055118 eg2_level4=0.9055118 eg2_level5=1 eg2_cutoff_curvecc131=201 eg2_cutoff_oncc131=1042.2857143 eg3_amplitude=100 eg3_sustain=4 eg3_time1=0 eg3_time2=0 eg3_time3=0.6375464 eg3_time4=6.6608623 eg3_time5=0.4593049 eg3_level1=0 eg3_level2=1 eg3_level3=0.4156189 eg3_level4=0 eg3_level5=0 amplitude_cc16=83.4645669 ampeg_attack=0 ampeg_release=0.4593049 eg4_time1=0 eg4_time2=0 eg4_time3=0.6375464 eg4_time4=6.6608623 eg4_time5=0.4593049 eg4_level1=1 eg4_level2=1 eg4_level3=1 eg4_level4=1 eg4_level5=1
<region>sample=../Sample/Wave84.wav lokey=25 hikey=25 pitch_keycenter=66 tune=-554 loop_mode=one_shot pan=0 eg2_cutoff=5472 eg2_sustain=4 eg2_time1=0 eg2_time2=0 eg2_time3=0.0489896 eg2_time4=0 eg2_time5=0 eg2_level1=0 eg2_level2=1 eg2_level3=0.9055118 eg2_level4=0.9055118 eg2_level5=1 eg2_cutoff_curvecc131=201 eg2_cutoff_oncc131=1042.2857143 eg3_amplitude=100 eg3_sustain=4 eg3_time1=0 eg3_time2=0 eg3_time3=0.6181145 eg3_time4=6.4578448 eg3_time5=0.4453057 eg3_level1=0 eg3_level2=1 eg3_level3=0.4156189 eg3_level4=0 eg3_level5=0 amplitude_cc16=83.4645669 ampeg_attack=0 ampeg_release=0.4453057 eg4_time1=0 eg4_time2=0 eg4_time3=0.6181145 eg4_time4=6.4578448 eg4_time5=0.4453057 eg4_level1=1 eg4_level2=1 eg4_level3=1 eg4_level4=1 eg4_level5=1
<region>sample=../Sample/Wave84.wav lokey=26 hikey=26 pitch_keycenter=66 tune=-554 loop_mode=one_shot pan=0 eg2_cutoff=5472 eg2_sustain=4 eg2_time1=0 eg2_time2=0 eg2_time3=0.0489896 eg2_time4=0 eg2_time5=0 eg2_level1=0 eg2_level2=1 eg2_level3=0.9055118 eg2_level4=0.9055118 eg2_level5=1 eg2_cutoff_curvecc131=201 eg2_cutoff_oncc131=1042.2857143 eg3_amplitude=100 eg3_sustain=4 eg3_time1=0 eg3_time2=0 eg3_time3=0.5992749 eg3_time4=6.2610151 eg3_time5=0.4317331 eg3_level1=0 eg3_level2=1 eg3_level3=0.4156189 eg3_level4=0 eg3_level5=0 amplitude_cc16=83.4645669 ampeg_attack=0 ampeg_release=0.4317331 eg4_time1=0 eg4_time2=0 eg4_time3=0.5992749 eg4_time4=6.2610151 eg4_time5=0.4317331 eg4_level1=1 eg4_level2=1 eg4_level3=1 eg4_level4=1 eg4_level5=1
<region>sample=../Sample/Wave84.wav lokey=27 hikey=27 pitch_keycenter=66 tune=-554 loop_mode=one_shot pan=0 eg2_cutoff=5472 eg2_sustain=4 eg2_time1=0 eg2_time2=0 eg2_time3=0.0489896 eg2_time4=0 eg2_time5=0 eg2_level1=0 eg2_level2=1 eg2_level3=0.9055118 eg2_level4=0.9055118 eg2_level5=1 eg2_cutoff_curvecc131=201 eg2_cutoff_oncc131=1042.2857143 eg3_amplitude=100 eg3_sustain=4 eg3_time1=0 eg3_time2=0 eg3_time3=0.5810095 eg3_time4=6.0701846 eg3_time5=0.4185743 eg3_level1=0 eg3_level2=1 eg3_level3=0.4156189 eg3_level4=0 eg3_level5=0 amplitude_cc16=83.4645669 ampeg_attack=0 ampeg_release=0.4185743 eg4_time1=0 eg4_time2=0 eg4_time3=0.5810095 eg4_time4=6.0701846 eg4_time5=0.4185743 eg4_level1=1 eg4_level2=1 eg4_level3=1 eg4_level4=1 eg4_level5=1
<region>sample=../Sample/Wave84.wav lokey=28 hikey=28 pitch_keycenter=66 tune=-554 loop_mode=one_shot pan=0 eg2_cutoff=5472 eg2_sustain=4 eg2_time1=0 eg2_time2=0 eg2_time3=0.0489896 eg2_time4=0 eg2_time5=0 eg2_level1=0 eg2_level2=1 eg2_level3=0.9055118 eg2_level4=0.9055118 eg2_level5=1 eg2_cutoff_curvecc131=201 eg2_cutoff_oncc131=1042.2857143 eg3_amplitude=100 eg3_sustain=4 eg3_time1=0 eg3_time2=0 eg3_time3=0.5633008 eg3_time4=5.8851704 eg3_time5=0.4058165 eg3_level1=0 eg3_level2=1 eg3_level3=0.4156189 eg3_level4=0 eg3_level5=0 amplitude_cc16=83.4645669 ampeg_attack=0 ampeg_release=0.4058165 eg4_time1=0 eg4_time2=0 eg4_time3=0.5633008 eg4_time4=5.8851704 eg4_time5=0.4058165 eg4_level1=1 eg4_level2=1 eg4_level3=1 eg4_level4=1 eg4_level5=1
<region>sample=../Sample/Wave84.wav lokey=29 hikey=29 pitch_keycenter=66 tune=-554 loop_mode=one_shot pan=0 eg2_cutoff=5472 eg2_sustain=4 eg2_time1=0 eg2_time2=0 eg2_time3=0.0489896 eg2_time4=0 eg2_time5=0 eg2_level1=0 eg2_level2=1 eg2_level3=0.9055118 eg2_level4=0.9055118 eg2_level5=1 eg2_cutoff_curvecc131=201 eg2_cutoff_oncc131=1042.2857143 eg3_amplitude=100 eg3_sustain=4 eg3_time1=0 eg3_time2=0 eg3_time3=0.5461319 eg3_time4=5.7057953 eg3_time5=0.3934475 eg3_level1=0 eg3_level2=1 eg3_level3=0.4156189 eg3_level4=0 eg3_level5=0 amplitude_cc16=83.4645669 ampeg_attack=0 ampeg_release=0.3934475 eg4_time1=0 eg4_time2=0 eg4_time3=0.5461319 eg4_time4=5.7057953 eg4_time5=0.3934475 eg4_level1=1 eg4_level2=1 eg4_level3=1 eg4_level4=1 eg4_level5=1
<region>sample=../Sample/Wave84.wav lokey=30 hikey=30 pitch_keycenter=66 tune=-554 loop_mode=one_shot pan=0 eg2_cutoff=5472 eg2_sustain=4 eg2_time1=0 eg2_time2=0 eg2_time3=0.0489896 eg2_time4=0 eg2_time5=0 eg2_level1=0 eg2_level2=1 eg2_level3=0.9055118 eg2_level4=0.9055118 eg2_level5=1 eg2_cutoff_curvecc131=201 eg2_cutoff_oncc131=1042.2857143 eg3_amplitude=100 eg3_sustain=4 eg3_time1=0 eg3_time2=0 eg3_time3=0.5294863 eg3_time4=5.5318875 eg3_time5=0.3814556 eg3_level1=0 eg3_level2=1 eg3_level3=0.4156189 eg3_level4=0 eg3_level5=0 amplitude_cc16=83.4645669 ampeg_attack=0 ampeg_release=0.3814556 eg4_time1=0 eg4_time2=0 eg4_time3=0.5294863 eg4_time4=5.5318875 eg4_time5=0.3814556 eg4_level1=1 eg4_level2=1 eg4_level3=1 eg4_level4=1 eg4_level5=1
<region>sample=../Sample/Wave84.wav lokey=31 hikey=31 pitch_keycenter=66 tune=-554 loop_mode=one_shot pan=0 eg2_cutoff=5472 eg2_sustain=4 eg2_time1=0 eg2_time2=0 eg2_time3=0.0489896 eg2_time4=0 eg2_time5=0 eg2_level1=0 eg2_level2=1 eg2_level3=0.9055118 eg2_level4=0.9055118 eg2_level5=1 eg2_cutoff_curvecc131=201 eg2_cutoff_oncc131=1042.2857143 eg3_amplitude=100 eg3_sustain=4 eg3_time1=0 eg3_time2=0 eg3_time3=0.513348 eg3_time4=5.3632801 eg3_time5=0.3698291 eg3_level1=0 eg3_level2=1 eg3_level3=0.4156189 eg3_level4=0 eg3_level5=0 amplitude_cc16=83.4645669 ampeg_attack=0 ampeg_release=0.3698291 eg4_time1=0 eg4_time2=0 eg4_time3=0.513348 eg4_time4=5.3632801 eg4_time5=0.3698291 eg4_level1=1 eg4_level2=1 eg4_level3=1 eg4_level4=1 eg4_level5=1
<region>sample=../Sample/Wave84.wav lokey=32 hikey=32 pitch_keycenter=66 tune=-554 loop_mode=one_shot pan=0 eg2_cutoff=5472 eg2_sustain=4 eg2_time1=0 eg2_time2=0 eg2_time3=0.0489896 eg2_time4=0 eg2_time5=0 eg2_level1=0 eg2_level2=1 eg2_level3=0.9055118 eg2_level4=0.9055118 eg2_level5=1 eg2_cutoff_curvecc131=201 eg2_cutoff_oncc131=1042.2857143 eg3_amplitude=100 eg3_sustain=4 eg3_time1=0 eg3_time2=0 eg3_time3=0.4977015 eg3_time4=5.1998118 eg3_time5=0.358557 eg3_level1=0 eg3_level2=1 eg3_level3=0.4156189 eg3_level4=0 eg3_level5=0 amplitude_cc16=83.4645669 ampeg_attack=0 ampeg_release=0.358557 eg4_time1=0 eg4_time2=0 eg4_time3=0.4977015 eg4_time4=5.1998118 eg4_time5=0.358557 eg4_level1=1 eg4_level2=1 eg4_level3=1 eg4_level4=1 eg4_level5=1
<region>sample=../Sample/Wave84.wav lokey=33 hikey=33 pitch_keycenter=66 tune=-554 loop_mode=one_shot pan=0 eg2_cutoff=5472 eg2_sustain=4 eg2_time1=0 eg2_time2=0 eg2_time3=0.0489896 eg2_time4=0 eg2_time5=0 eg2_level1=0 eg2_level2=1 eg2_level3=0.9055118 eg2_level4=0.9055118 eg2_level5=1 eg2_cutoff_curvecc131=201 eg2_cutoff_oncc131=1042.2857143 eg3_amplitude=100 eg3_sustain=4 eg3_time1=0 eg3_time2=0 eg3_time3=0.482532 eg3_time4=5.0413259 eg3_time5=0.3476285 eg3_level1=0 eg3_level2=1 eg3_level3=0.4156189 eg3_level4=0 eg3_level5=0 amplitude_cc16=83.4645669 ampeg_attack=0 ampeg_release=0.3476285 eg4_time1=0 eg4_time2=0 eg4_time3=0.482532 eg4_time4=5.0413259 eg4_time5=0.3476285 eg4_level1=1 eg4_level2=1 eg4_level3=1 eg4_level4=1 eg4_level5=1
<region>sample=../Sample/Wave84.wav lokey=34 hikey=34 pitch_keycenter=66 tune=-554 loop_mode=one_shot pan=0 eg2_cutoff=5472 eg2_sustain=4 eg2_time1=0 eg2_time2=0 eg2_time3=0.0489896 eg2_time4=0 eg2_time5=0 eg2_level1=0 eg2_level2=1 eg2_level3=0.9055118 eg2_level4=0.9055118 eg2_level5=1 eg2_cutoff_curvecc131=201 eg2_cutoff_oncc131=1042.2857143 eg3_amplitude=100 eg3_sustain=4 eg3_time1=0 eg3_time2=0 eg3_time3=0.4678248 eg3_time4=4.8876705 eg3_time5=0.3370331 eg3_level1=0 eg3_level2=1 eg3_level3=0.4156189 eg3_level4=0 eg3_level5=0 amplitude_cc16=83.4645669 ampeg_attack=0 ampeg_release=0.3370331 eg4_time1=0 eg4_time2=0 eg4_time3=0.4678248 eg4_time4=4.8876705 eg4_time5=0.3370331 eg4_level1=1 eg4_level2=1 eg4_level3=1 eg4_level4=1 eg4_level5=1
<region>sample=../Sample/Wave84.wav lokey=35 hikey=35 pitch_keycenter=66 tune=-554 loop_mode=one_shot pan=0 eg2_cutoff=5472 eg2_sustain=4 eg2_time1=0 eg2_time2=0 eg2_time3=0.0489896 eg2_time4=0 eg2_time5=0 eg2_level1=0 eg2_level2=1 eg2_level3=0.9055118 eg2_level4=0.9055118 eg2_level5=1 eg2_cutoff_curvecc131=201 eg2_cutoff_oncc131=1042.2857143 eg3_amplitude=100 eg3_sustain=4 eg3_time1=0 eg3_time2=0 eg3_time3=0.4535659 eg3_time4=4.7386984 eg3_time5=0.3267606 eg3_level1=0 eg3_level2=1 eg3_level3=0.4156189 eg3_level4=0 eg3_level5=0 amplitude_cc16=83.4645669 ampeg_attack=0 ampeg_release=0.3267606 eg4_time1=0 eg4_time2=0 eg4_time3=0.4535659 eg4_time4=4.7386984 eg4_time5=0.3267606 eg4_level1=1 eg4_level2=1 eg4_level3=1 eg4_level4=1 eg4_level5=1
<region>sample=../Sample/Wave84.wav lokey=36 hikey=36 pitch_keycenter=66 tune=-554 loop_mode=one_shot pan=0 eg2_cutoff=5472 eg2_sustain=4 eg2_time1=0 eg2_time2=0 eg2_time3=0.0489896 eg2_time4=0 eg2_time5=0 eg2_level1=0 eg2_level2=1 eg2_level3=0.9055118 eg2_level4=0.9055118 eg2_level5=1 eg2_cutoff_curvecc131=201 eg2_cutoff_oncc131=1042.2857143 eg3_amplitude=100 eg3_sustain=4 eg3_time1=0 eg3_time2=0 eg3_time3=0.4397416 eg3_time4=4.5942668 eg3_time5=0.3168012 eg3_level1=0 eg3_level2=1 eg3_level3=0.4156189 eg3_level4=0 eg3_level5=0 amplitude_cc16=83.4645669 ampeg_attack=0 ampeg_release=0.3168012 eg4_time1=0 eg4_time2=0 eg4_time3=0.4397416 eg4_time4=4.5942668 eg4_time5=0.3168012 eg4_level1=1 eg4_level2=1 eg4_level3=1 eg4_level4=1 eg4_level5=1
<region>sample=../Sample/Wave84.wav lokey=37 hikey=37 pitch_keycenter=66 tune=-554 loop_mode=one_shot pan=0 eg2_cutoff=5472 eg2_sustain=4 eg2_time1=0 eg2_time2=0 eg2_time3=0.0489896 eg2_time4=0 eg2_time5=0 eg2_level1=0 eg2_level2=1 eg2_level3=0.9055118 eg2_level4=0.9055118 eg2_level5=1 eg2_cutoff_curvecc131=201 eg2_cutoff_oncc131=1042.2857143 eg3_amplitude=100 eg3_sustain=4 eg3_time1=0 eg3_time2=0 eg3_time3=0.4263387 eg3_time4=4.4542374 eg3_time5=0.3071454 eg3_level1=0 eg3_level2=1 eg3_level3=0.4156189 eg3_level4=0 eg3_level5=0 amplitude_cc16=83.4645669 ampeg_attack=0 ampeg_release=0.3071454 eg4_time1=0 eg4_time2=0 eg4_time3=0.4263387 eg4_time4=4.4542374 eg4_time5=0.3071454 eg4_level1=1 eg4_level2=1 eg4_level3=1 eg4_level4=1 eg4_level5=1
<region>sample=../Sample/Wave84.wav lokey=38 hikey=38 pitch_keycenter=66 tune=-554 loop_mode=one_shot pan=0 eg2_cutoff=5472 eg2_sustain=4 eg2_time1=0 eg2_time2=0 eg2_time3=0.0489896 eg2_time4=0 eg2_time5=0 eg2_level1=0 eg2_level2=1 eg2_level3=0.9055118 eg2_level4=0.9055118 eg2_level5=1 eg2_cutoff_curvecc131=201 eg2_cutoff_oncc131=1042.2857143 eg3_amplitude=100 eg3_sustain=4 eg3_time1=0 eg3_time2=0 eg3_time3=0.4133442 eg3_time4=4.318476 eg3_time5=0.2977838 eg3_level1=0 eg3_level2=1 eg3_level3=0.4156189 eg3_level4=0 eg3_level5=0 amplitude_cc16=83.4645669 ampeg_attack=0 ampeg_release=0.2977838 eg4_time1=0 eg4_time2=0 eg4_time3=0.4133442 eg4_time4=4.318476 eg4_time5=0.2977838 eg4_level1=1 eg4_level2=1 eg4_level3=1 eg4_level4=1 eg4_level5=1
<region>sample=../Sample/Wave84.wav lokey=39 hikey=39 pitch_keycenter=66 tune=-554 loop_mode=one_shot pan=0 eg2_cutoff=5472 eg2_sustain=4 eg2_time1=0 eg2_time2=0 eg2_time3=0.0489896 eg2_time4=0 eg2_time5=0 eg2_level1=0 eg2_level2=1 eg2_level3=0.9055118 eg2_level4=0.9055118 eg2_level5=1 eg2_cutoff_curvecc131=201 eg2_cutoff_oncc131=1042.2857143 eg3_amplitude=100 eg3_sustain=4 eg3_time1=0 eg3_time2=0 eg3_time3=0.4007458 eg3_time4=4.1868524 eg3_time5=0.2887076 eg3_level1=0 eg3_level2=1 eg3_level3=0.4156189 eg3_level4=0 eg3_level5=0 amplitude_cc16=83.4645669 ampeg_attack=0 ampeg_release=0.2887076 eg4_time1=0 eg4_time2=0 eg4_time3=0.4007458 eg4_time4=4.1868524 eg4_time5=0.2887076 eg4_level1=1 eg4_level2=1 eg4_level3=1 eg4_level4=1 eg4_level5=1
<region>sample=../Sample/Wave84.wav lokey=40 hikey=40 pitch_keycenter=66 tune=-554 loop_mode=one_shot pan=0 eg2_cutoff=5472 eg2_sustain=4 eg2_time1=0 eg2_time2=0 eg2_time3=0.0489896 eg2_time4=0 eg2_time5=0 eg2_level1=0 eg2_level2=1 eg2_level3=0.9055118 eg2_level4=0.9055118 eg2_level5=1 eg2_cutoff_curvecc131=201 eg2_cutoff_oncc131=1042.2857143 eg3_amplitude=100 eg3_sustain=4 eg3_time1=0 eg3_time2=0 eg3_time3=0.3885314 eg3_time4=4.0592406 eg3_time5=0.2799081 eg3_level1=0 eg3_level2=1 eg3_level3=0.4156189 eg3_level4=0 eg3_level5=0 amplitude_cc16=83.4645669 ampeg_attack=0 ampeg_release=0.2799081 eg4_time1=0 eg4_time2=0 eg4_time3=0.3885314 eg4_time4=4.0592406 eg4_time5=0.2799081 eg4_level1=1 eg4_level2=1 eg4_level3=1 eg4_level4=1 eg4_level5=1
<region>sample=../Sample/Wave84.wav lokey=41 hikey=41 pitch_keycenter=66 tune=-554 loop_mode=one_shot pan=0 eg2_cutoff=5472 eg2_sustain=4 eg2_time1=0 eg2_time2=0 eg2_time3=0.0489896 eg2_time4=0 eg2_time5=0 eg2_level1=0 eg2_level2=1 eg2_level3=0.9055118 eg2_level4=0.9055118 eg2_level5=1 eg2_cutoff_curvecc131=201 eg2_cutoff_oncc131=1042.2857143 eg3_amplitude=100 eg3_sustain=4 eg3_time1=0 eg3_time2=0 eg3_time3=0.3766893 eg3_time4=3.9355184 eg3_time5=0.2713767 eg3_level1=0 eg3_level2=1 eg3_level3=0.4156189 eg3_level4=0 eg3_level5=0 amplitude_cc16=83.4645669 ampeg_attack=0 ampeg_release=0.2713767 eg4_time1=0 eg4_time2=0 eg4_time3=0.3766893 eg4_time4=3.9355184 eg4_time5=0.2713767 eg4_level1=1 eg4_level2=1 eg4_level3=1 eg4_level4=1 eg4_level5=1
<region>sample=../Sample/Wave84.wav lokey=42 hikey=42 pitch_keycenter=66 tune=-554 loop_mode=one_shot pan=0 eg2_cutoff=5472 eg2_sustain=4 eg2_time1=0 eg2_time2=0 eg2_time3=0.0489896 eg2_time4=0 eg2_time5=0 eg2_level1=0 eg2_level2=1 eg2_level3=0.9055118 eg2_level4=0.9055118 eg2_level5=1 eg2_cutoff_curvecc131=201 eg2_cutoff_oncc131=1042.2857143 eg3_amplitude=100 eg3_sustain=4 eg3_time1=0 eg3_time2=0 eg3_time3=0.3652081 eg3_time4=3.8155671 eg3_time5=0.2631054 eg3_level1=0 eg3_level2=1 eg3_level3=0.4156189 eg3_level4=0 eg3_level5=0 amplitude_cc16=83.4645669 ampeg_attack=0 ampeg_release=0.2631054 eg4_time1=0 eg4_time2=0 eg4_time3=0.3652081 eg4_time4=3.8155671 eg4_time5=0.2631054 eg4_level1=1 eg4_level2=1 eg4_level3=1 eg4_level4=1 eg4_level5=1
<region>sample=../Sample/Wave84.wav lokey=43 hikey=43 pitch_keycenter=66 tune=-554 loop_mode=one_shot pan=0 eg2_cutoff=5472 eg2_sustain=4 eg2_time1=0 eg2_time2=0 eg2_time3=0.0489896 eg2_time4=0 eg2_time5=0 eg2_level1=0 eg2_level2=1 eg2_level3=0.9055118 eg2_level4=0.9055118 eg2_level5=1 eg2_cutoff_curvecc131=201 eg2_cutoff_oncc131=1042.2857143 eg3_amplitude=100 eg3_sustain=4 eg3_time1=0 eg3_time2=0 eg3_time3=0.3540769 eg3_time4=3.6992718 eg3_time5=0.2550861 eg3_level1=0 eg3_level2=1 eg3_level3=0.4156189 eg3_level4=0 eg3_level5=0 amplitude_cc16=83.4645669 ampeg_attack=0 ampeg_release=0.2550861 eg4_time1=0 eg4_time2=0 eg4_time3=0.3540769 eg4_time4=3.6992718 eg4_time5=0.2550861 eg4_level1=1 eg4_level2=1 eg4_level3=1 eg4_level4=1 eg4_level5=1
<region>sample=../Sample/Wave84.wav lokey=44 hikey=44 pitch_keycenter=66 tune=-554 loop_mode=one_shot pan=0 eg2_cutoff=5472 eg2_sustain=4 eg2_time1=0 eg2_time2=0 eg2_time3=0.0489896 eg2_time4=0 eg2_time5=0 eg2_level1=0 eg2_level2=1 eg2_level3=0.9055118 eg2_level4=0.9055118 eg2_level5=1 eg2_cutoff_curvecc131=201 eg2_cutoff_oncc131=1042.2857143 eg3_amplitude=100 eg3_sustain=4 eg3_time1=0 eg3_time2=0 eg3_time3=0.3432849 eg3_time4=3.586521 eg3_time5=0.2473113 eg3_level1=0 eg3_level2=1 eg3_level3=0.4156189 eg3_level4=0 eg3_level5=0 amplitude_cc16=83.4645669 ampeg_attack=0 ampeg_release=0.2473113 eg4_time1=0 eg4_time2=0 eg4_time3=0.3432849 eg4_time4=3.586521 eg4_time5=0.2473113 eg4_level1=1 eg4_level2=1 eg4_level3=1 eg4_level4=1 eg4_level5=1
<region>sample=../Sample/Wave84.wav lokey=45 hikey=45 pitch_keycenter=66 tune=-554 loop_mode=one_shot pan=0 eg2_cutoff=5472 eg2_sustain=4 eg2_time1=0 eg2_time2=0 eg2_time3=0.0489896 eg2_time4=0 eg2_time5=0 eg2_level1=0 eg2_level2=1 eg2_level3=0.9055118 eg2_level4=0.9055118 eg2_level5=1 eg2_cutoff_curvecc131=201 eg2_cutoff_oncc131=1042.2857143 eg3_amplitude=100 eg3_sustain=4 eg3_time1=0 eg3_time2=0 eg3_time3=0.3328219 eg3_time4=3.4772069 eg3_time5=0.2397735 eg3_level1=0 eg3_level2=1 eg3_level3=0.4156189 eg3_level4=0 eg3_level5=0 amplitude_cc16=83.4645669 ampeg_attack=0 ampeg_release=0.2397735 eg4_time1=0 eg4_time2=0 eg4_time3=0.3328219 eg4_time4=3.4772069 eg4_time5=0.2397735 eg4_level1=1 eg4_level2=1 eg4_level3=1 eg4_level4=1 eg4_level5=1
<region>sample=../Sample/Wave84.wav lokey=46 hikey=46 pitch_keycenter=66 tune=-554 loop_mode=one_shot pan=0 eg2_cutoff=5472 eg2_sustain=4 eg2_time1=0 eg2_time2=0 eg2_time3=0.0489896 eg2_time4=0 eg2_time5=0 eg2_level1=0 eg2_level2=1 eg2_level3=0.9055118 eg2_level4=0.9055118 eg2_level5=1 eg2_cutoff_curvecc131=201 eg2_cutoff_oncc131=1042.2857143 eg3_amplitude=100 eg3_sustain=4 eg3_time1=0 eg3_time2=0 eg3_time3=0.3226778 eg3_time4=3.3712245 eg3_time5=0.2324654 eg3_level1=0 eg3_level2=1 eg3_level3=0.4156189 eg3_level4=0 eg3_level5=0 amplitude_cc16=83.4645669 ampeg_attack=0 ampeg_release=0.2324654 eg4_time1=0 eg4_time2=0 eg4_time3=0.3226778 eg4_time4=3.3712245 eg4_time5=0.2324654 eg4_level1=1 eg4_level2=1 eg4_level3=1 eg4_level4=1 eg4_level5=1
<region>sample=../Sample/Wave84.wav lokey=47 hikey=47 pitch_keycenter=66 tune=-554 loop_mode=one_shot pan=0 eg2_cutoff=5472 eg2_sustain=4 eg2_time1=0 eg2_time2=0 eg2_time3=0.0489896 eg2_time4=0 eg2_time5=0 eg2_level1=0 eg2_level2=1 eg2_level3=0.9055118 eg2_level4=0.9055118 eg2_level5=1 eg2_cutoff_curvecc131=201 eg2_cutoff_oncc131=1042.2857143 eg3_amplitude=100 eg3_sustain=4 eg3_time1=0 eg3_time2=0 eg3_time3=0.3128428 eg3_time4=3.2684724 eg3_time5=0.22538 eg3_level1=0 eg3_level2=1 eg3_level3=0.4156189 eg3_level4=0 eg3_level5=0 amplitude_cc16=83.4645669 ampeg_attack=0 ampeg_release=0.22538 eg4_time1=0 eg4_time2=0 eg4_time3=0.3128428 eg4_time4=3.2684724 eg4_time5=0.22538 eg4_level1=1 eg4_level2=1 eg4_level3=1 eg4_level4=1 eg4_level5=1
<region>sample=../Sample/Wave84.wav lokey=48 hikey=48 pitch_keycenter=66 tune=-554 loop_mode=one_shot pan=0 eg2_cutoff=5472 eg2_sustain=4 eg2_time1=0 eg2_time2=0 eg2_time3=0.0489896 eg2_time4=0 eg2_time5=0 eg2_level1=0 eg2_level2=1 eg2_level3=0.9055118 eg2_level4=0.9055118 eg2_level5=1 eg2_cutoff_curvecc131=201 eg2_cutoff_oncc131=1042.2857143 eg3_amplitude=100 eg3_sustain=4 eg3_time1=0 eg3_time2=0 eg3_time3=0.3033076 eg3_time4=3.1688521 eg3_time5=0.2185106 eg3_level1=0 eg3_level2=1 eg3_level3=0.4156189 eg3_level4=0 eg3_level5=0 amplitude_cc16=83.4645669 ampeg_attack=0 ampeg_release=0.2185106 eg4_time1=0 eg4_time2=0 eg4_time3=0.3033076 eg4_time4=3.1688521 eg4_time5=0.2185106 eg4_level1=1 eg4_level2=1 eg4_level3=1 eg4_level4=1 eg4_level5=1
<region>sample=../Sample/Wave84.wav lokey=49 hikey=49 pitch_keycenter=66 tune=-554 loop_mode=one_shot pan=0 eg2_cutoff=5472 eg2_sustain=4 eg2_time1=0 eg2_time2=0 eg2_time3=0.0489896 eg2_time4=0 eg2_time5=0 eg2_level1=0 eg2_level2=1 eg2_level3=0.9055118 eg2_level4=0.9055118 eg2_level5=1 eg2_cutoff_curvecc131=201 eg2_cutoff_oncc131=1042.2857143 eg3_amplitude=100 eg3_sustain=4 eg3_time1=0 eg3_time2=0 eg3_time3=0.2940631 eg3_time4=3.0722681 eg3_time5=0.2118506 eg3_level1=0 eg3_level2=1 eg3_level3=0.4156189 eg3_level4=0 eg3_level5=0 amplitude_cc16=83.4645669 ampeg_attack=0 ampeg_release=0.2118506 eg4_time1=0 eg4_time2=0 eg4_time3=0.2940631 eg4_time4=3.0722681 eg4_time5=0.2118506 eg4_level1=1 eg4_level2=1 eg4_level3=1 eg4_level4=1 eg4_level5=1
<region>sample=../Sample/Wave84.wav lokey=50 hikey=50 pitch_keycenter=66 tune=-554 loop_mode=one_shot pan=0 eg2_cutoff=5472 eg2_sustain=4 eg2_time1=0 eg2_time2=0 eg2_time3=0.0489896 eg2_time4=0 eg2_time5=0 eg2_level1=0 eg2_level2=1 eg2_level3=0.9055118 eg2_level4=0.9055118 eg2_level5=1 eg2_cutoff_curvecc131=201 eg2_cutoff_oncc131=1042.2857143 eg3_amplitude=100 eg3_sustain=4 eg3_time1=0 eg3_time2=0 eg3_time3=0.2851003 eg3_time4=2.978628 eg3_time5=0.2053936 eg3_level1=0 eg3_level2=1 eg3_level3=0.4156189 eg3_level4=0 eg3_level5=0 amplitude_cc16=83.4645669 ampeg_attack=0 ampeg_release=0.2053936 eg4_time1=0 eg4_time2=0 eg4_time3=0.2851003 eg4_time4=2.978628 eg4_time5=0.2053936 eg4_level1=1 eg4_level2=1 eg4_level3=1 eg4_level4=1 eg4_level5=1
<region>sample=../Sample/Wave84.wav lokey=51 hikey=51 pitch_keycenter=66 tune=-554 loop_mode=one_shot pan=0 eg2_cutoff=5472 eg2_sustain=4 eg2_time1=0 eg2_time2=0 eg2_time3=0.0489896 eg2_time4=0 eg2_time5=0 eg2_level1=0 eg2_level2=1 eg2_level3=0.9055118 eg2_level4=0.9055118 eg2_level5=1 eg2_cutoff_curvecc131=201 eg2_cutoff_oncc131=1042.2857143 eg3_amplitude=100 eg3_sustain=4 eg3_time1=0 eg3_time2=0 eg3_time3=0.2764106 eg3_time4=2.8878419 eg3_time5=0.1991334 eg3_level1=0 eg3_level2=1 eg3_level3=0.4156189 eg3_level4=0 eg3_level5=0 amplitude_cc16=83.4645669 ampeg_attack=0 ampeg_release=0.1991334 eg4_time1=0 eg4_time2=0 eg4_time3=0.2764106 eg4_time4=2.8878419 eg4_time5=0.1991334 eg4_level1=1 eg4_level2=1 eg4_level3=1 eg4_level4=1 eg4_level5=1
<region>sample=../Sample/Wave84.wav lokey=52 hikey=52 pitch_keycenter=66 tune=-554 loop_mode=one_shot pan=0 eg2_cutoff=5472 eg2_sustain=4 eg2_time1=0 eg2_time2=0 eg2_time3=0.0489896 eg2_time4=0 eg2_time5=0 eg2_level1=0 eg2_level2=1 eg2_level3=0.9055118 eg2_level4=0.9055118 eg2_level5=1 eg2_cutoff_curvecc131=201 eg2_cutoff_oncc131=1042.2857143 eg3_amplitude=100 eg3_sustain=4 eg3_time1=0 eg3_time2=0 eg3_time3=0.2679859 eg3_time4=2.7998229 eg3_time5=0.1930639 eg3_level1=0 eg3_level2=1 eg3_level3=0.4156189 eg3_level4=0 eg3_level5=0 amplitude_cc16=83.4645669 ampeg_attack=0 ampeg_release=0.1930639 eg4_time1=0 eg4_time2=0 eg4_time3=0.2679859 eg4_time4=2.7998229 eg4_time5=0.1930639 eg4_level1=1 eg4_level2=1 eg4_level3=1 eg4_level4=1 eg4_level5=1
<region>sample=../Sample/Wave84.wav lokey=53 hikey=53 pitch_keycenter=66 tune=-554 loop_mode=one_shot pan=0 eg2_cutoff=5472 eg2_sustain=4 eg2_time1=0 eg2_time2=0 eg2_time3=0.0489896 eg2_time4=0 eg2_time5=0 eg2_level1=0 eg2_level2=1 eg2_level3=0.9055118 eg2_level4=0.9055118 eg2_level5=1 eg2_cutoff_curvecc131=201 eg2_cutoff_oncc131=1042.2857143 eg3_amplitude=100 eg3_sustain=4 eg3_time1=0 eg3_time2=0 eg3_time3=0.2598179 eg3_time4=2.7144866 eg3_time5=0.1871795 eg3_level1=0 eg3_level2=1 eg3_level3=0.4156189 eg3_level4=0 eg3_level5=0 amplitude_cc16=83.4645669 ampeg_attack=0 ampeg_release=0.1871795 eg4_time1=0 eg4_time2=0 eg4_time3=0.2598179 eg4_time4=2.7144866 eg4_time5=0.1871795 eg4_level1=1 eg4_level2=1 eg4_level3=1 eg4_level4=1 eg4_level5=1
<region>sample=../Sample/Wave84.wav lokey=54 hikey=54 pitch_keycenter=66 tune=-554 loop_mode=one_shot pan=0 eg2_cutoff=5472 eg2_sustain=4 eg2_time1=0 eg2_time2=0 eg2_time3=0.0489896 eg2_time4=0 eg2_time5=0 eg2_level1=0 eg2_level2=1 eg2_level3=0.9055118 eg2_level4=0.9055118 eg2_level5=1 eg2_cutoff_curvecc131=201 eg2_cutoff_oncc131=1042.2857143 eg3_amplitude=100 eg3_sustain=4 eg3_time1=0 eg3_time2=0 eg3_time3=0.2518989 eg3_time4=2.6317513 eg3_time5=0.1814744 eg3_level1=0 eg3_level2=1 eg3_level3=0.4156189 eg3_level4=0 eg3_level5=0 amplitude_cc16=83.4645669 ampeg_attack=0 ampeg_release=0.1814744 eg4_time1=0 eg4_time2=0 eg4_time3=0.2518989 eg4_time4=2.6317513 eg4_time5=0.1814744 eg4_level1=1 eg4_level2=1 eg4_level3=1 eg4_level4=1 eg4_level5=1
<region>sample=../Sample/Wave84.wav lokey=55 hikey=55 pitch_keycenter=66 tune=-554 loop_mode=one_shot pan=0 eg2_cutoff=5472 eg2_sustain=4 eg2_time1=0 eg2_time2=0 eg2_time3=0.0489896 eg2_time4=0 eg2_time5=0 eg2_level1=0 eg2_level2=1 eg2_level3=0.9055118 eg2_level4=0.9055118 eg2_level5=1 eg2_cutoff_curvecc131=201 eg2_cutoff_oncc131=1042.2857143 eg3_amplitude=100 eg3_sustain=4 eg3_time1=0 eg3_time2=0 eg3_time3=0.2442212 eg3_time4=2.5515377 eg3_time5=0.1759433 eg3_level1=0 eg3_level2=1 eg3_level3=0.4156189 eg3_level4=0 eg3_level5=0 amplitude_cc16=83.4645669 ampeg_attack=0 ampeg_release=0.1759433 eg4_time1=0 eg4_time2=0 eg4_time3=0.2442212 eg4_time4=2.5515377 eg4_time5=0.1759433 eg4_level1=1 eg4_level2=1 eg4_level3=1 eg4_level4=1 eg4_level5=1
<region>sample=../Sample/Wave84.wav lokey=56 hikey=56 pitch_keycenter=66 tune=-554 loop_mode=one_shot pan=0 eg2_cutoff=5472 eg2_sustain=4 eg2_time1=0 eg2_time2=0 eg2_time3=0.0489896 eg2_time4=0 eg2_time5=0 eg2_level1=0 eg2_level2=1 eg2_level3=0.9055118 eg2_level4=0.9055118 eg2_level5=1 eg2_cutoff_curvecc131=201 eg2_cutoff_oncc131=1042.2857143 eg3_amplitude=100 eg3_sustain=4 eg3_time1=0 eg3_time2=0 eg3_time3=0.2367775 eg3_time4=2.473769 eg3_time5=0.1705806 eg3_level1=0 eg3_level2=1 eg3_level3=0.4156189 eg3_level4=0 eg3_level5=0 amplitude_cc16=83.4645669 ampeg_attack=0 ampeg_release=0.1705806 eg4_time1=0 eg4_time2=0 eg4_time3=0.2367775 eg4_time4=2.473769 eg4_time5=0.1705806 eg4_level1=1 eg4_level2=1 eg4_level3=1 eg4_level4=1 eg4_level5=1
<region>sample=../Sample/Wave84.wav lokey=57 hikey=57 pitch_keycenter=66 tune=-554 loop_mode=one_shot pan=0 eg2_cutoff=5472 eg2_sustain=4 eg2_time1=0 eg2_time2=0 eg2_time3=0.0489896 eg2_time4=0 eg2_time5=0 eg2_level1=0 eg2_level2=1 eg2_level3=0.9055118 eg2_level4=0.9055118 eg2_level5=1 eg2_cutoff_curvecc131=201 eg2_cutoff_oncc131=1042.2857143 eg3_amplitude=100 eg3_sustain=4 eg3_time1=0 eg3_time2=0 eg3_time3=0.2295608 eg3_time4=2.3983706 eg3_time5=0.1653815 eg3_level1=0 eg3_level2=1 eg3_level3=0.4156189 eg3_level4=0 eg3_level5=0 amplitude_cc16=83.4645669 ampeg_attack=0 ampeg_release=0.1653815 eg4_time1=0 eg4_time2=0 eg4_time3=0.2295608 eg4_time4=2.3983706 eg4_time5=0.1653815 eg4_level1=1 eg4_level2=1 eg4_level3=1 eg4_level4=1 eg4_level5=1
<region>sample=../Sample/Wave84.wav lokey=58 hikey=58 pitch_keycenter=66 tune=-554 loop_mode=one_shot pan=0 eg2_cutoff=5472 eg2_sustain=4 eg2_time1=0 eg2_time2=0 eg2_time3=0.0489896 eg2_time4=0 eg2_time5=0 eg2_level1=0 eg2_level2=1 eg2_level3=0.9055118 eg2_level4=0.9055118 eg2_level5=1 eg2_cutoff_curvecc131=201 eg2_cutoff_oncc131=1042.2857143 eg3_amplitude=100 eg3_sustain=4 eg3_time1=0 eg3_time2=0 eg3_time3=0.2225639 eg3_time4=2.3252702 eg3_time5=0.1603408 eg3_level1=0 eg3_level2=1 eg3_level3=0.4156189 eg3_level4=0 eg3_level5=0 amplitude_cc16=83.4645669 ampeg_attack=0 ampeg_release=0.1603408 eg4_time1=0 eg4_time2=0 eg4_time3=0.2225639 eg4_time4=2.3252702 eg4_time5=0.1603408 eg4_level1=1 eg4_level2=1 eg4_level3=1 eg4_level4=1 eg4_level5=1
<region>sample=../Sample/Wave84.wav lokey=59 hikey=59 pitch_keycenter=66 tune=-554 loop_mode=one_shot pan=0 eg2_cutoff=5472 eg2_sustain=4 eg2_time1=0 eg2_time2=0 eg2_time3=0.0489896 eg2_time4=0 eg2_time5=0 eg2_level1=0 eg2_level2=1 eg2_level3=0.9055118 eg2_level4=0.9055118 eg2_level5=1 eg2_cutoff_curvecc131=201 eg2_cutoff_oncc131=1042.2857143 eg3_amplitude=100 eg3_sustain=4 eg3_time1=0 eg3_time2=0 eg3_time3=0.2157804 eg3_time4=2.2543979 eg3_time5=0.1554537 eg3_level1=0 eg3_level2=1 eg3_level3=0.4156189 eg3_level4=0 eg3_level5=0 amplitude_cc16=83.4645669 ampeg_attack=0 ampeg_release=0.1554537 eg4_time1=0 eg4_time2=0 eg4_time3=0.2157804 eg4_time4=2.2543979 eg4_time5=0.1554537 eg4_level1=1 eg4_level2=1 eg4_level3=1 eg4_level4=1 eg4_level5=1
<region>sample=../Sample/Wave84.wav lokey=60 hikey=60 pitch_keycenter=66 tune=-554 loop_mode=one_shot pan=0 eg2_cutoff=5472 eg2_sustain=4 eg2_time1=0 eg2_time2=0 eg2_time3=0.0489896 eg2_time4=0 eg2_time5=0 eg2_level1=0 eg2_level2=1 eg2_level3=0.9055118 eg2_level4=0.9055118 eg2_level5=1 eg2_cutoff_curvecc131=201 eg2_cutoff_oncc131=1042.2857143 eg3_amplitude=100 eg3_sustain=4 eg3_time1=0 eg3_time2=0 eg3_time3=0.2092036 eg3_time4=2.1856858 eg3_time5=0.1507156 eg3_level1=0 eg3_level2=1 eg3_level3=0.4156189 eg3_level4=0 eg3_level5=0 amplitude_cc16=83.4645669 ampeg_attack=0 ampeg_release=0.1507156 eg4_time1=0 eg4_time2=0 eg4_time3=0.2092036 eg4_time4=2.1856858 eg4_time5=0.1507156 eg4_level1=1 eg4_level2=1 eg4_level3=1 eg4_level4=1 eg4_level5=1
<region>sample=../Sample/Wave84.wav lokey=61 hikey=61 pitch_keycenter=66 tune=-554 loop_mode=one_shot pan=0 eg2_cutoff=5472 eg2_sustain=4 eg2_time1=0 eg2_time2=0 eg2_time3=0.0489896 eg2_time4=0 eg2_time5=0 eg2_level1=0 eg2_level2=1 eg2_level3=0.9055118 eg2_level4=0.9055118 eg2_level5=1 eg2_cutoff_curvecc131=201 eg2_cutoff_oncc131=1042.2857143 eg3_amplitude=100 eg3_sustain=4 eg3_time1=0 eg3_time2=0 eg3_time3=0.2028272 eg3_time4=2.1190679 eg3_time5=0.146122 eg3_level1=0 eg3_level2=1 eg3_level3=0.4156189 eg3_level4=0 eg3_level5=0 amplitude_cc16=83.4645669 ampeg_attack=0 ampeg_release=0.146122 eg4_time1=0 eg4_time2=0 eg4_time3=0.2028272 eg4_time4=2.1190679 eg4_time5=0.146122 eg4_level1=1 eg4_level2=1 eg4_level3=1 eg4_level4=1 eg4_level5=1
<region>sample=../Sample/Wave84.wav lokey=62 hikey=62 pitch_keycenter=66 tune=-554 loop_mode=one_shot pan=0 eg2_cutoff=5472 eg2_sustain=4 eg2_time1=0 eg2_time2=0 eg2_time3=0.0489896 eg2_time4=0 eg2_time5=0 eg2_level1=0 eg2_level2=1 eg2_level3=0.9055118 eg2_level4=0.9055118 eg2_level5=1 eg2_cutoff_curvecc131=201 eg2_cutoff_oncc131=1042.2857143 eg3_amplitude=100 eg3_sustain=4 eg3_time1=0 eg3_time2=0 eg3_time3=0.1966452 eg3_time4=2.0544805 eg3_time5=0.1416683 eg3_level1=0 eg3_level2=1 eg3_level3=0.4156189 eg3_level4=0 eg3_level5=0 amplitude_cc16=83.4645669 ampeg_attack=0 ampeg_release=0.1416683 eg4_time1=0 eg4_time2=0 eg4_time3=0.1966452 eg4_time4=2.0544805 eg4_time5=0.1416683 eg4_level1=1 eg4_level2=1 eg4_level3=1 eg4_level4=1 eg4_level5=1
<region>sample=../Sample/Wave84.wav lokey=63 hikey=63 pitch_keycenter=66 tune=-554 loop_mode=one_shot pan=0 eg2_cutoff=5472 eg2_sustain=4 eg2_time1=0 eg2_time2=0 eg2_time3=0.0489896 eg2_time4=0 eg2_time5=0 eg2_level1=0 eg2_level2=1 eg2_level3=0.9055118 eg2_level4=0.9055118 eg2_level5=1 eg2_cutoff_curvecc131=201 eg2_cutoff_oncc131=1042.2857143 eg3_amplitude=100 eg3_sustain=4 eg3_time1=0 eg3_time2=0 eg3_time3=0.1906516 eg3_time4=1.9918616 eg3_time5=0.1373504 eg3_level1=0 eg3_level2=1 eg3_level3=0.4156189 eg3_level4=0 eg3_level5=0 amplitude_cc16=83.4645669 ampeg_attack=0 ampeg_release=0.1373504 eg4_time1=0 eg4_time2=0 eg4_time3=0.1906516 eg4_time4=1.9918616 eg4_time5=0.1373504 eg4_level1=1 eg4_level2=1 eg4_level3=1 eg4_level4=1 eg4_level5=1
<region>sample=../Sample/Wave84.wav lokey=64 hikey=64 pitch_keycenter=66 tune=-554 loop_mode=one_shot pan=0 eg2_cutoff=5472 eg2_sustain=4 eg2_time1=0 eg2_time2=0 eg2_time3=0.0489896 eg2_time4=0 eg2_time5=0 eg2_level1=0 eg2_level2=1 eg2_level3=0.9055118 eg2_level4=0.9055118 eg2_level5=1 eg2_cutoff_curvecc131=201 eg2_cutoff_oncc131=1042.2857143 eg3_amplitude=100 eg3_sustain=4 eg3_time1=0 eg3_time2=0 eg3_time3=0.1848407 eg3_time4=1.9311513 eg3_time5=0.133164 eg3_level1=0 eg3_level2=1 eg3_level3=0.4156189 eg3_level4=0 eg3_level5=0 amplitude_cc16=83.4645669 ampeg_attack=0 ampeg_release=0.133164 eg4_time1=0 eg4_time2=0 eg4_time3=0.1848407 eg4_time4=1.9311513 eg4_time5=0.133164 eg4_level1=1 eg4_level2=1 eg4_level3=1 eg4_level4=1 eg4_level5=1
<region>sample=../Sample/Wave84.wav lokey=65 hikey=65 pitch_keycenter=66 tune=-554 loop_mode=one_shot pan=0 eg2_cutoff=5472 eg2_sustain=4 eg2_time1=0 eg2_time2=0 eg2_time3=0.0489896 eg2_time4=0 eg2_time5=0 eg2_level1=0 eg2_level2=1 eg2_level3=0.9055118 eg2_level4=0.9055118 eg2_level5=1 eg2_cutoff_curvecc131=201 eg2_cutoff_oncc131=1042.2857143 eg3_amplitude=100 eg3_sustain=4 eg3_time1=0 eg3_time2=0 eg3_time3=0.1792069 eg3_time4=1.8722915 eg3_time5=0.1291053 eg3_level1=0 eg3_level2=1 eg3_level3=0.4156189 eg3_level4=0 eg3_level5=0 amplitude_cc16=83.4645669 ampeg_attack=0 ampeg_release=0.1291053 eg4_time1=0 eg4_time2=0 eg4_time3=0.1792069 eg4_time4=1.8722915 eg4_time5=0.1291053 eg4_level1=1 eg4_level2=1 eg4_level3=1 eg4_level4=1 eg4_level5=1
<region>sample=../Sample/Wave84.wav lokey=66 hikey=66 pitch_keycenter=66 tune=-554 loop_mode=one_shot pan=0 eg2_cutoff=5472 eg2_sustain=4 eg2_time1=0 eg2_time2=0 eg2_time3=0.0489896 eg2_time4=0 eg2_time5=0 eg2_level1=0 eg2_level2=1 eg2_level3=0.9055118 eg2_level4=0.9055118 eg2_level5=1 eg2_cutoff_curvecc131=201 eg2_cutoff_oncc131=1042.2857143 eg3_amplitude=100 eg3_sustain=4 eg3_time1=0 eg3_time2=0 eg3_time3=0.1737449 eg3_time4=1.8152256 eg3_time5=0.1251703 eg3_level1=0 eg3_level2=1 eg3_level3=0.4156189 eg3_level4=0 eg3_level5=0 amplitude_cc16=83.4645669 ampeg_attack=0 ampeg_release=0.1251703 eg4_time1=0 eg4_time2=0 eg4_time3=0.1737449 eg4_time4=1.8152256 eg4_time5=0.1251703 eg4_level1=1 eg4_level2=1 eg4_level3=1 eg4_level4=1 eg4_level5=1
<region>sample=../Sample/Wave84.wav lokey=67 hikey=67 pitch_keycenter=66 tune=-554 loop_mode=one_shot pan=0 eg2_cutoff=5472 eg2_sustain=4 eg2_time1=0 eg2_time2=0 eg2_time3=0.0489896 eg2_time4=0 eg2_time5=0 eg2_level1=0 eg2_level2=1 eg2_level3=0.9055118 eg2_level4=0.9055118 eg2_level5=1 eg2_cutoff_curvecc131=201 eg2_cutoff_oncc131=1042.2857143 eg3_amplitude=100 eg3_sustain=4 eg3_time1=0 eg3_time2=0 eg3_time3=0.1684493 eg3_time4=1.759899 eg3_time5=0.1213552 eg3_level1=0 eg3_level2=1 eg3_level3=0.4156189 eg3_level4=0 eg3_level5=0 amplitude_cc16=83.4645669 ampeg_attack=0 ampeg_release=0.1213552 eg4_time1=0 eg4_time2=0 eg4_time3=0.1684493 eg4_time4=1.759899 eg4_time5=0.1213552 eg4_level1=1 eg4_level2=1 eg4_level3=1 eg4_level4=1 eg4_level5=1
<region>sample=../Sample/Wave84.wav lokey=68 hikey=68 pitch_keycenter=66 tune=-554 loop_mode=one_shot pan=0 eg2_cutoff=5472 eg2_sustain=4 eg2_time1=0 eg2_time2=0 eg2_time3=0.0489896 eg2_time4=0 eg2_time5=0 eg2_level1=0 eg2_level2=1 eg2_level3=0.9055118 eg2_level4=0.9055118 eg2_level5=1 eg2_cutoff_curvecc131=201 eg2_cutoff_oncc131=1042.2857143 eg3_amplitude=100 eg3_sustain=4 eg3_time1=0 eg3_time2=0 eg3_time3=0.1633151 eg3_time4=1.7062588 eg3_time5=0.1176564 eg3_level1=0 eg3_level2=1 eg3_level3=0.4156189 eg3_level4=0 eg3_level5=0 amplitude_cc16=83.4645669 ampeg_attack=0 ampeg_release=0.1176564 eg4_time1=0 eg4_time2=0 eg4_time3=0.1633151 eg4_time4=1.7062588 eg4_time5=0.1176564 eg4_level1=1 eg4_level2=1 eg4_level3=1 eg4_level4=1 eg4_level5=1
<region>sample=../Sample/Wave84.wav lokey=69 hikey=69 pitch_keycenter=66 tune=-554 loop_mode=one_shot pan=0 eg2_cutoff=5472 eg2_sustain=4 eg2_time1=0 eg2_time2=0 eg2_time3=0.0489896 eg2_time4=0 eg2_time5=0 eg2_level1=0 eg2_level2=1 eg2_level3=0.9055118 eg2_level4=0.9055118 eg2_level5=1 eg2_cutoff_curvecc131=201 eg2_cutoff_oncc131=1042.2857143 eg3_amplitude=100 eg3_sustain=4 eg3_time1=0 eg3_time2=0 eg3_time3=0.1583374 eg3_time4=1.6542534 eg3_time5=0.1140703 eg3_level1=0 eg3_level2=1 eg3_level3=0.4156189 eg3_level4=0 eg3_level5=0 amplitude_cc16=83.4645669 ampeg_attack=0 ampeg_release=0.1140703 eg4_time1=0 eg4_time2=0 eg4_time3=0.1583374 eg4_time4=1.6542534 eg4_time5=0.1140703 eg4_level1=1 eg4_level2=1 eg4_level3=1 eg4_level4=1 eg4_level5=1
<region>sample=../Sample/Wave84.wav lokey=70 hikey=70 pitch_keycenter=66 tune=-554 loop_mode=one_shot pan=0 eg2_cutoff=5472 eg2_sustain=4 eg2_time1=0 eg2_time2=0 eg2_time3=0.0489896 eg2_time4=0 eg2_time5=0 eg2_level1=0 eg2_level2=1 eg2_level3=0.9055118 eg2_level4=0.9055118 eg2_level5=1 eg2_cutoff_curvecc131=201 eg2_cutoff_oncc131=1042.2857143 eg3_amplitude=100 eg3_sustain=4 eg3_time1=0 eg3_time2=0 eg3_time3=0.1535114 eg3_time4=1.6038332 eg3_time5=0.1105936 eg3_level1=0 eg3_level2=1 eg3_level3=0.4156189 eg3_level4=0 eg3_level5=0 amplitude_cc16=83.4645669 ampeg_attack=0 ampeg_release=0.1105936 eg4_time1=0 eg4_time2=0 eg4_time3=0.1535114 eg4_time4=1.6038332 eg4_time5=0.1105936 eg4_level1=1 eg4_level2=1 eg4_level3=1 eg4_level4=1 eg4_level5=1
<region>sample=../Sample/Wave84.wav lokey=71 hikey=71 pitch_keycenter=66 tune=-554 loop_mode=one_shot pan=0 eg2_cutoff=5472 eg2_sustain=4 eg2_time1=0 eg2_time2=0 eg2_time3=0.0489896 eg2_time4=0 eg2_time5=0 eg2_level1=0 eg2_level2=1 eg2_level3=0.9055118 eg2_level4=0.9055118 eg2_level5=1 eg2_cutoff_curvecc131=201 eg2_cutoff_oncc131=1042.2857143 eg3_amplitude=100 eg3_sustain=4 eg3_time1=0 eg3_time2=0 eg3_time3=0.1488325 eg3_time4=1.5549497 eg3_time5=0.1072228 eg3_level1=0 eg3_level2=1 eg3_level3=0.4156189 eg3_level4=0 eg3_level5=0 amplitude_cc16=83.4645669 ampeg_attack=0 ampeg_release=0.1072228 eg4_time1=0 eg4_time2=0 eg4_time3=0.1488325 eg4_time4=1.5549497 eg4_time5=0.1072228 eg4_level1=1 eg4_level2=1 eg4_level3=1 eg4_level4=1 eg4_level5=1
<region>sample=../Sample/Wave84.wav lokey=72 hikey=72 pitch_keycenter=66 tune=-554 loop_mode=one_shot pan=0 eg2_cutoff=5472 eg2_sustain=4 eg2_time1=0 eg2_time2=0 eg2_time3=0.0489896 eg2_time4=0 eg2_time5=0 eg2_level1=0 eg2_level2=1 eg2_level3=0.9055118 eg2_level4=0.9055118 eg2_level5=1 eg2_cutoff_curvecc131=201 eg2_cutoff_oncc131=1042.2857143 eg3_amplitude=100 eg3_sustain=4 eg3_time1=0 eg3_time2=0 eg3_time3=0.1442962 eg3_time4=1.5075561 eg3_time5=0.1039547 eg3_level1=0 eg3_level2=1 eg3_level3=0.4156189 eg3_level4=0 eg3_level5=0 amplitude_cc16=83.4645669 ampeg_attack=0 ampeg_release=0.1039547 eg4_time1=0 eg4_time2=0 eg4_time3=0.1442962 eg4_time4=1.5075561 eg4_time5=0.1039547 eg4_level1=1 eg4_level2=1 eg4_level3=1 eg4_level4=1 eg4_level5=1
<region>sample=../Sample/Wave84.wav lokey=73 hikey=73 pitch_keycenter=66 tune=-554 loop_mode=one_shot pan=0 eg2_cutoff=5472 eg2_sustain=4 eg2_time1=0 eg2_time2=0 eg2_time3=0.0489896 eg2_time4=0 eg2_time5=0 eg2_level1=0 eg2_level2=1 eg2_level3=0.9055118 eg2_level4=0.9055118 eg2_level5=1 eg2_cutoff_curvecc131=201 eg2_cutoff_oncc131=1042.2857143 eg3_amplitude=100 eg3_sustain=4 eg3_time1=0 eg3_time2=0 eg3_time3=0.1398982 eg3_time4=1.461607 eg3_time5=0.1007862 eg3_level1=0 eg3_level2=1 eg3_level3=0.4156189 eg3_level4=0 eg3_level5=0 amplitude_cc16=83.4645669 ampeg_attack=0 ampeg_release=0.1007862 eg4_time1=0 eg4_time2=0 eg4_time3=0.1398982 eg4_time4=1.461607 eg4_time5=0.1007862 eg4_level1=1 eg4_level2=1 eg4_level3=1 eg4_level4=1 eg4_level5=1
<region>sample=../Sample/Wave84.wav lokey=74 hikey=74 pitch_keycenter=66 tune=-554 loop_mode=one_shot pan=0 eg2_cutoff=5472 eg2_sustain=4 eg2_time1=0 eg2_time2=0 eg2_time3=0.0489896 eg2_time4=0 eg2_time5=0 eg2_level1=0 eg2_level2=1 eg2_level3=0.9055118 eg2_level4=0.9055118 eg2_level5=1 eg2_cutoff_curvecc131=201 eg2_cutoff_oncc131=1042.2857143 eg3_amplitude=100 eg3_sustain=4 eg3_time1=0 eg3_time2=0 eg3_time3=0.1356342 eg3_time4=1.4170585 eg3_time5=0.0977144 eg3_level1=0 eg3_level2=1 eg3_level3=0.4156189 eg3_level4=0 eg3_level5=0 amplitude_cc16=83.4645669 ampeg_attack=0 ampeg_release=0.0977144 eg4_time1=0 eg4_time2=0 eg4_time3=0.1356342 eg4_time4=1.4170585 eg4_time5=0.0977144 eg4_level1=1 eg4_level2=1 eg4_level3=1 eg4_level4=1 eg4_level5=1
<region>sample=../Sample/Wave84.wav lokey=75 hikey=75 pitch_keycenter=66 tune=-554 loop_mode=one_shot pan=0 eg2_cutoff=5472 eg2_sustain=4 eg2_time1=0 eg2_time2=0 eg2_time3=0.0489896 eg2_time4=0 eg2_time5=0 eg2_level1=0 eg2_level2=1 eg2_level3=0.9055118 eg2_level4=0.9055118 eg2_level5=1 eg2_cutoff_curvecc131=201 eg2_cutoff_oncc131=1042.2857143 eg3_amplitude=100 eg3_sustain=4 eg3_time1=0 eg3_time2=0 eg3_time3=0.1315002 eg3_time4=1.3738677 eg3_time5=0.0947361 eg3_level1=0 eg3_level2=1 eg3_level3=0.4156189 eg3_level4=0 eg3_level5=0 amplitude_cc16=83.4645669 ampeg_attack=0 ampeg_release=0.0947361 eg4_time1=0 eg4_time2=0 eg4_time3=0.1315002 eg4_time4=1.3738677 eg4_time5=0.0947361 eg4_level1=1 eg4_level2=1 eg4_level3=1 eg4_level4=1 eg4_level5=1
<region>sample=../Sample/Wave84.wav lokey=76 hikey=76 pitch_keycenter=66 tune=-554 loop_mode=one_shot pan=0 eg2_cutoff=5472 eg2_sustain=4 eg2_time1=0 eg2_time2=0 eg2_time3=0.0489896 eg2_time4=0 eg2_time5=0 eg2_level1=0 eg2_level2=1 eg2_level3=0.9055118 eg2_level4=0.9055118 eg2_level5=1 eg2_cutoff_curvecc131=201 eg2_cutoff_oncc131=1042.2857143 eg3_amplitude=100 eg3_sustain=4 eg3_time1=0 eg3_time2=0 eg3_time3=0.1274921 eg3_time4=1.3319934 eg3_time5=0.0918486 eg3_level1=0 eg3_level2=1 eg3_level3=0.4156189 eg3_level4=0 eg3_level5=0 amplitude_cc16=83.4645669 ampeg_attack=0 ampeg_release=0.0918486 eg4_time1=0 eg4_time2=0 eg4_time3=0.1274921 eg4_time4=1.3319934 eg4_time5=0.0918486 eg4_level1=1 eg4_level2=1 eg4_level3=1 eg4_level4=1 eg4_level5=1
<region>sample=../Sample/Wave84.wav lokey=77 hikey=77 pitch_keycenter=66 tune=-554 loop_mode=one_shot pan=0 eg2_cutoff=5472 eg2_sustain=4 eg2_time1=0 eg2_time2=0 eg2_time3=0.0489896 eg2_time4=0 eg2_time5=0 eg2_level1=0 eg2_level2=1 eg2_level3=0.9055118 eg2_level4=0.9055118 eg2_level5=1 eg2_cutoff_curvecc131=201 eg2_cutoff_oncc131=1042.2857143 eg3_amplitude=100 eg3_sustain=4 eg3_time1=0 eg3_time2=0 eg3_time3=0.1236063 eg3_time4=1.2913953 eg3_time5=0.0890492 eg3_level1=0 eg3_level2=1 eg3_level3=0.4156189 eg3_level4=0 eg3_level5=0 amplitude_cc16=83.4645669 ampeg_attack=0 ampeg_release=0.0890492 eg4_time1=0 eg4_time2=0 eg4_time3=0.1236063 eg4_time4=1.2913953 eg4_time5=0.0890492 eg4_level1=1 eg4_level2=1 eg4_level3=1 eg4_level4=1 eg4_level5=1
<region>sample=../Sample/Wave84.wav lokey=78 hikey=78 pitch_keycenter=66 tune=-554 loop_mode=one_shot pan=0 eg2_cutoff=5472 eg2_sustain=4 eg2_time1=0 eg2_time2=0 eg2_time3=0.0489896 eg2_time4=0 eg2_time5=0 eg2_level1=0 eg2_level2=1 eg2_level3=0.9055118 eg2_level4=0.9055118 eg2_level5=1 eg2_cutoff_curvecc131=201 eg2_cutoff_oncc131=1042.2857143 eg3_amplitude=100 eg3_sustain=4 eg3_time1=0 eg3_time2=0 eg3_time3=0.1198389 eg3_time4=1.2520347 eg3_time5=0.086335 eg3_level1=0 eg3_level2=1 eg3_level3=0.4156189 eg3_level4=0 eg3_level5=0 amplitude_cc16=83.4645669 ampeg_attack=0 ampeg_release=0.086335 eg4_time1=0 eg4_time2=0 eg4_time3=0.1198389 eg4_time4=1.2520347 eg4_time5=0.086335 eg4_level1=1 eg4_level2=1 eg4_level3=1 eg4_level4=1 eg4_level5=1
<region>sample=../Sample/Wave84.wav lokey=79 hikey=79 pitch_keycenter=66 tune=-554 loop_mode=one_shot pan=0 eg2_cutoff=5472 eg2_sustain=4 eg2_time1=0 eg2_time2=0 eg2_time3=0.0489896 eg2_time4=0 eg2_time5=0 eg2_level1=0 eg2_level2=1 eg2_level3=0.9055118 eg2_level4=0.9055118 eg2_level5=1 eg2_cutoff_curvecc131=201 eg2_cutoff_oncc131=1042.2857143 eg3_amplitude=100 eg3_sustain=4 eg3_time1=0 eg3_time2=0 eg3_time3=0.1161863 eg3_time4=1.2138737 eg3_time5=0.0837036 eg3_level1=0 eg3_level2=1 eg3_level3=0.4156189 eg3_level4=0 eg3_level5=0 amplitude_cc16=83.4645669 ampeg_attack=0 ampeg_release=0.0837036 eg4_time1=0 eg4_time2=0 eg4_time3=0.1161863 eg4_time4=1.2138737 eg4_time5=0.0837036 eg4_level1=1 eg4_level2=1 eg4_level3=1 eg4_level4=1 eg4_level5=1
<region>sample=../Sample/Wave84.wav lokey=80 hikey=80 pitch_keycenter=66 tune=-554 loop_mode=one_shot pan=0 eg2_cutoff=5472 eg2_sustain=4 eg2_time1=0 eg2_time2=0 eg2_time3=0.0489896 eg2_time4=0 eg2_time5=0 eg2_level1=0 eg2_level2=1 eg2_level3=0.9055118 eg2_level4=0.9055118 eg2_level5=1 eg2_cutoff_curvecc131=201 eg2_cutoff_oncc131=1042.2857143 eg3_amplitude=100 eg3_sustain=4 eg3_time1=0 eg3_time2=0 eg3_time3=0.112645 eg3_time4=1.1768758 eg3_time5=0.0811524 eg3_level1=0 eg3_level2=1 eg3_level3=0.4156189 eg3_level4=0 eg3_level5=0 amplitude_cc16=83.4645669 ampeg_attack=0 ampeg_release=0.0811524 eg4_time1=0 eg4_time2=0 eg4_time3=0.112645 eg4_time4=1.1768758 eg4_time5=0.0811524 eg4_level1=1 eg4_level2=1 eg4_level3=1 eg4_level4=1 eg4_level5=1
<region>sample=../Sample/Wave84.wav lokey=81 hikey=81 pitch_keycenter=66 tune=-554 loop_mode=one_shot pan=0 eg2_cutoff=5472 eg2_sustain=4 eg2_time1=0 eg2_time2=0 eg2_time3=0.0489896 eg2_time4=0 eg2_time5=0 eg2_level1=0 eg2_level2=1 eg2_level3=0.9055118 eg2_level4=0.9055118 eg2_level5=1 eg2_cutoff_curvecc131=201 eg2_cutoff_oncc131=1042.2857143 eg3_amplitude=100 eg3_sustain=4 eg3_time1=0 eg3_time2=0 eg3_time3=0.1092117 eg3_time4=1.1410057 eg3_time5=0.0786789 eg3_level1=0 eg3_level2=1 eg3_level3=0.4156189 eg3_level4=0 eg3_level5=0 amplitude_cc16=83.4645669 ampeg_attack=0 ampeg_release=0.0786789 eg4_time1=0 eg4_time2=0 eg4_time3=0.1092117 eg4_time4=1.1410057 eg4_time5=0.0786789 eg4_level1=1 eg4_level2=1 eg4_level3=1 eg4_level4=1 eg4_level5=1
<region>sample=../Sample/Wave84.wav lokey=82 hikey=82 pitch_keycenter=66 tune=-554 loop_mode=one_shot pan=0 eg2_cutoff=5472 eg2_sustain=4 eg2_time1=0 eg2_time2=0 eg2_time3=0.0489896 eg2_time4=0 eg2_time5=0 eg2_level1=0 eg2_level2=1 eg2_level3=0.9055118 eg2_level4=0.9055118 eg2_level5=1 eg2_cutoff_curvecc131=201 eg2_cutoff_oncc131=1042.2857143 eg3_amplitude=100 eg3_sustain=4 eg3_time1=0 eg3_time2=0 eg3_time3=0.105883 eg3_time4=1.1062287 eg3_time5=0.0762809 eg3_level1=0 eg3_level2=1 eg3_level3=0.4156189 eg3_level4=0 eg3_level5=0 amplitude_cc16=83.4645669 ampeg_attack=0 ampeg_release=0.0762809 eg4_time1=0 eg4_time2=0 eg4_time3=0.105883 eg4_time4=1.1062287 eg4_time5=0.0762809 eg4_level1=1 eg4_level2=1 eg4_level3=1 eg4_level4=1 eg4_level5=1
<region>sample=../Sample/Wave84.wav lokey=83 hikey=83 pitch_keycenter=66 tune=-554 loop_mode=one_shot pan=0 eg2_cutoff=5472 eg2_sustain=4 eg2_time1=0 eg2_time2=0 eg2_time3=0.0489896 eg2_time4=0 eg2_time5=0 eg2_level1=0 eg2_level2=1 eg2_level3=0.9055118 eg2_level4=0.9055118 eg2_level5=1 eg2_cutoff_curvecc131=201 eg2_cutoff_oncc131=1042.2857143 eg3_amplitude=100 eg3_sustain=4 eg3_time1=0 eg3_time2=0 eg3_time3=0.1026558 eg3_time4=1.0725118 eg3_time5=0.0739559 eg3_level1=0 eg3_level2=1 eg3_level3=0.4156189 eg3_level4=0 eg3_level5=0 amplitude_cc16=83.4645669 ampeg_attack=0 ampeg_release=0.0739559 eg4_time1=0 eg4_time2=0 eg4_time3=0.1026558 eg4_time4=1.0725118 eg4_time5=0.0739559 eg4_level1=1 eg4_level2=1 eg4_level3=1 eg4_level4=1 eg4_level5=1
<region>sample=../Sample/Wave84.wav lokey=84 hikey=84 pitch_keycenter=66 tune=-554 loop_mode=one_shot pan=0 eg2_cutoff=5472 eg2_sustain=4 eg2_time1=0 eg2_time2=0 eg2_time3=0.0489896 eg2_time4=0 eg2_time5=0 eg2_level1=0 eg2_level2=1 eg2_level3=0.9055118 eg2_level4=0.9055118 eg2_level5=1 eg2_cutoff_curvecc131=201 eg2_cutoff_oncc131=1042.2857143 eg3_amplitude=100 eg3_sustain=4 eg3_time1=0 eg3_time2=0 eg3_time3=0.0995269 eg3_time4=1.0398226 eg3_time5=0.0717018 eg3_level1=0 eg3_level2=1 eg3_level3=0.4156189 eg3_level4=0 eg3_level5=0 amplitude_cc16=83.4645669 ampeg_attack=0 ampeg_release=0.0717018 eg4_time1=0 eg4_time2=0 eg4_time3=0.0995269 eg4_time4=1.0398226 eg4_time5=0.0717018 eg4_level1=1 eg4_level2=1 eg4_level3=1 eg4_level4=1 eg4_level5=1
<region>sample=../Sample/Wave84.wav lokey=85 hikey=85 pitch_keycenter=66 tune=-554 loop_mode=one_shot pan=0 eg2_cutoff=5472 eg2_sustain=4 eg2_time1=0 eg2_time2=0 eg2_time3=0.0489896 eg2_time4=0 eg2_time5=0 eg2_level1=0 eg2_level2=1 eg2_level3=0.9055118 eg2_level4=0.9055118 eg2_level5=1 eg2_cutoff_curvecc131=201 eg2_cutoff_oncc131=1042.2857143 eg3_amplitude=100 eg3_sustain=4 eg3_time1=0 eg3_time2=0 eg3_time3=0.0964934 eg3_time4=1.0081296 eg3_time5=0.0695164 eg3_level1=0 eg3_level2=1 eg3_level3=0.4156189 eg3_level4=0 eg3_level5=0 amplitude_cc16=83.4645669 ampeg_attack=0 ampeg_release=0.0695164 eg4_time1=0 eg4_time2=0 eg4_time3=0.0964934 eg4_time4=1.0081296 eg4_time5=0.0695164 eg4_level1=1 eg4_level2=1 eg4_level3=1 eg4_level4=1 eg4_level5=1
<region>sample=../Sample/Wave84.wav lokey=86 hikey=86 pitch_keycenter=66 tune=-554 loop_mode=one_shot pan=0 eg2_cutoff=5472 eg2_sustain=4 eg2_time1=0 eg2_time2=0 eg2_time3=0.0489896 eg2_time4=0 eg2_time5=0 eg2_level1=0 eg2_level2=1 eg2_level3=0.9055118 eg2_level4=0.9055118 eg2_level5=1 eg2_cutoff_curvecc131=201 eg2_cutoff_oncc131=1042.2857143 eg3_amplitude=100 eg3_sustain=4 eg3_time1=0 eg3_time2=0 eg3_time3=0.0935524 eg3_time4=0.9774027 eg3_time5=0.0673976 eg3_level1=0 eg3_level2=1 eg3_level3=0.4156189 eg3_level4=0 eg3_level5=0 amplitude_cc16=83.4645669 ampeg_attack=0 ampeg_release=0.0673976 eg4_time1=0 eg4_time2=0 eg4_time3=0.0935524 eg4_time4=0.9774027 eg4_time5=0.0673976 eg4_level1=1 eg4_level2=1 eg4_level3=1 eg4_level4=1 eg4_level5=1
<region>sample=../Sample/Wave84.wav lokey=87 hikey=87 pitch_keycenter=66 tune=-554 loop_mode=one_shot pan=0 eg2_cutoff=5472 eg2_sustain=4 eg2_time1=0 eg2_time2=0 eg2_time3=0.0489896 eg2_time4=0 eg2_time5=0 eg2_level1=0 eg2_level2=1 eg2_level3=0.9055118 eg2_level4=0.9055118 eg2_level5=1 eg2_cutoff_curvecc131=201 eg2_cutoff_oncc131=1042.2857143 eg3_amplitude=100 eg3_sustain=4 eg3_time1=0 eg3_time2=0 eg3_time3=0.090701 eg3_time4=0.9476123 eg3_time5=0.0653433 eg3_level1=0 eg3_level2=1 eg3_level3=0.4156189 eg3_level4=0 eg3_level5=0 amplitude_cc16=83.4645669 ampeg_attack=0 ampeg_release=0.0653433 eg4_time1=0 eg4_time2=0 eg4_time3=0.090701 eg4_time4=0.9476123 eg4_time5=0.0653433 eg4_level1=1 eg4_level2=1 eg4_level3=1 eg4_level4=1 eg4_level5=1
<region>sample=../Sample/Wave84.wav lokey=88 hikey=88 pitch_keycenter=66 tune=-554 loop_mode=one_shot pan=0 eg2_cutoff=5472 eg2_sustain=4 eg2_time1=0 eg2_time2=0 eg2_time3=0.0489896 eg2_time4=0 eg2_time5=0 eg2_level1=0 eg2_level2=1 eg2_level3=0.9055118 eg2_level4=0.9055118 eg2_level5=1 eg2_cutoff_curvecc131=201 eg2_cutoff_oncc131=1042.2857143 eg3_amplitude=100 eg3_sustain=4 eg3_time1=0 eg3_time2=0 eg3_time3=0.0879365 eg3_time4=0.9187298 eg3_time5=0.0633517 eg3_level1=0 eg3_level2=1 eg3_level3=0.4156189 eg3_level4=0 eg3_level5=0 amplitude_cc16=83.4645669 ampeg_attack=0 ampeg_release=0.0633517 eg4_time1=0 eg4_time2=0 eg4_time3=0.0879365 eg4_time4=0.9187298 eg4_time5=0.0633517 eg4_level1=1 eg4_level2=1 eg4_level3=1 eg4_level4=1 eg4_level5=1
<region>sample=../Sample/Wave84.wav lokey=89 hikey=89 pitch_keycenter=66 tune=-554 loop_mode=one_shot pan=0 eg2_cutoff=5472 eg2_sustain=4 eg2_time1=0 eg2_time2=0 eg2_time3=0.0489896 eg2_time4=0 eg2_time5=0 eg2_level1=0 eg2_level2=1 eg2_level3=0.9055118 eg2_level4=0.9055118 eg2_level5=1 eg2_cutoff_curvecc131=201 eg2_cutoff_oncc131=1042.2857143 eg3_amplitude=100 eg3_sustain=4 eg3_time1=0 eg3_time2=0 eg3_time3=0.0852563 eg3_time4=0.8907277 eg3_time5=0.0614208 eg3_level1=0 eg3_level2=1 eg3_level3=0.4156189 eg3_level4=0 eg3_level5=0 amplitude_cc16=83.4645669 ampeg_attack=0 ampeg_release=0.0614208 eg4_time1=0 eg4_time2=0 eg4_time3=0.0852563 eg4_time4=0.8907277 eg4_time5=0.0614208 eg4_level1=1 eg4_level2=1 eg4_level3=1 eg4_level4=1 eg4_level5=1
<region>sample=../Sample/Wave84.wav lokey=90 hikey=90 pitch_keycenter=66 tune=-554 loop_mode=one_shot pan=0 eg2_cutoff=5472 eg2_sustain=4 eg2_time1=0 eg2_time2=0 eg2_time3=0.0489896 eg2_time4=0 eg2_time5=0 eg2_level1=0 eg2_level2=1 eg2_level3=0.9055118 eg2_level4=0.9055118 eg2_level5=1 eg2_cutoff_curvecc131=201 eg2_cutoff_oncc131=1042.2857143 eg3_amplitude=100 eg3_sustain=4 eg3_time1=0 eg3_time2=0 eg3_time3=0.0826577 eg3_time4=0.8635791 eg3_time5=0.0595488 eg3_level1=0 eg3_level2=1 eg3_level3=0.4156189 eg3_level4=0 eg3_level5=0 amplitude_cc16=83.4645669 ampeg_attack=0 ampeg_release=0.0595488 eg4_time1=0 eg4_time2=0 eg4_time3=0.0826577 eg4_time4=0.8635791 eg4_time5=0.0595488 eg4_level1=1 eg4_level2=1 eg4_level3=1 eg4_level4=1 eg4_level5=1
<region>sample=../Sample/Wave84.wav lokey=91 hikey=91 pitch_keycenter=66 tune=-554 loop_mode=one_shot pan=0 eg2_cutoff=5472 eg2_sustain=4 eg2_time1=0 eg2_time2=0 eg2_time3=0.0489896 eg2_time4=0 eg2_time5=0 eg2_level1=0 eg2_level2=1 eg2_level3=0.9055118 eg2_level4=0.9055118 eg2_level5=1 eg2_cutoff_curvecc131=201 eg2_cutoff_oncc131=1042.2857143 eg3_amplitude=100 eg3_sustain=4 eg3_time1=0 eg3_time2=0 eg3_time3=0.0801384 eg3_time4=0.8372579 eg3_time5=0.0577338 eg3_level1=0 eg3_level2=1 eg3_level3=0.4156189 eg3_level4=0 eg3_level5=0 amplitude_cc16=83.4645669 ampeg_attack=0 ampeg_release=0.0577338 eg4_time1=0 eg4_time2=0 eg4_time3=0.0801384 eg4_time4=0.8372579 eg4_time5=0.0577338 eg4_level1=1 eg4_level2=1 eg4_level3=1 eg4_level4=1 eg4_level5=1
<region>sample=../Sample/Wave84.wav lokey=92 hikey=92 pitch_keycenter=66 tune=-554 loop_mode=one_shot pan=0 eg2_cutoff=5472 eg2_sustain=4 eg2_time1=0 eg2_time2=0 eg2_time3=0.0489896 eg2_time4=0 eg2_time5=0 eg2_level1=0 eg2_level2=1 eg2_level3=0.9055118 eg2_level4=0.9055118 eg2_level5=1 eg2_cutoff_curvecc131=201 eg2_cutoff_oncc131=1042.2857143 eg3_amplitude=100 eg3_sustain=4 eg3_time1=0 eg3_time2=0 eg3_time3=0.0776958 eg3_time4=0.811739 eg3_time5=0.0559741 eg3_level1=0 eg3_level2=1 eg3_level3=0.4156189 eg3_level4=0 eg3_level5=0 amplitude_cc16=83.4645669 ampeg_attack=0 ampeg_release=0.0559741 eg4_time1=0 eg4_time2=0 eg4_time3=0.0776958 eg4_time4=0.811739 eg4_time5=0.0559741 eg4_level1=1 eg4_level2=1 eg4_level3=1 eg4_level4=1 eg4_level5=1
<region>sample=../Sample/Wave84.wav lokey=93 hikey=93 pitch_keycenter=66 tune=-554 loop_mode=one_shot pan=0 eg2_cutoff=5472 eg2_sustain=4 eg2_time1=0 eg2_time2=0 eg2_time3=0.0489896 eg2_time4=0 eg2_time5=0 eg2_level1=0 eg2_level2=1 eg2_level3=0.9055118 eg2_level4=0.9055118 eg2_level5=1 eg2_cutoff_curvecc131=201 eg2_cutoff_oncc131=1042.2857143 eg3_amplitude=100 eg3_sustain=4 eg3_time1=0 eg3_time2=0 eg3_time3=0.0753277 eg3_time4=0.7869979 eg3_time5=0.054268 eg3_level1=0 eg3_level2=1 eg3_level3=0.4156189 eg3_level4=0 eg3_level5=0 amplitude_cc16=83.4645669 ampeg_attack=0 ampeg_release=0.054268 eg4_time1=0 eg4_time2=0 eg4_time3=0.0753277 eg4_time4=0.7869979 eg4_time5=0.054268 eg4_level1=1 eg4_level2=1 eg4_level3=1 eg4_level4=1 eg4_level5=1
<region>sample=../Sample/Wave84.wav lokey=94 hikey=94 pitch_keycenter=66 tune=-554 loop_mode=one_shot pan=0 eg2_cutoff=5472 eg2_sustain=4 eg2_time1=0 eg2_time2=0 eg2_time3=0.0489896 eg2_time4=0 eg2_time5=0 eg2_level1=0 eg2_level2=1 eg2_level3=0.9055118 eg2_level4=0.9055118 eg2_level5=1 eg2_cutoff_curvecc131=201 eg2_cutoff_oncc131=1042.2857143 eg3_amplitude=100 eg3_sustain=4 eg3_time1=0 eg3_time2=0 eg3_time3=0.0730318 eg3_time4=0.7630108 eg3_time5=0.052614 eg3_level1=0 eg3_level2=1 eg3_level3=0.4156189 eg3_level4=0 eg3_level5=0 amplitude_cc16=83.4645669 ampeg_attack=0 ampeg_release=0.052614 eg4_time1=0 eg4_time2=0 eg4_time3=0.0730318 eg4_time4=0.7630108 eg4_time5=0.052614 eg4_level1=1 eg4_level2=1 eg4_level3=1 eg4_level4=1 eg4_level5=1
<region>sample=../Sample/Wave84.wav lokey=95 hikey=95 pitch_keycenter=66 tune=-554 loop_mode=one_shot pan=0 eg2_cutoff=5472 eg2_sustain=4 eg2_time1=0 eg2_time2=0 eg2_time3=0.0489896 eg2_time4=0 eg2_time5=0 eg2_level1=0 eg2_level2=1 eg2_level3=0.9055118 eg2_level4=0.9055118 eg2_level5=1 eg2_cutoff_curvecc131=201 eg2_cutoff_oncc131=1042.2857143 eg3_amplitude=100 eg3_sustain=4 eg3_time1=0 eg3_time2=0 eg3_time3=0.0708059 eg3_time4=0.7397549 eg3_time5=0.0510104 eg3_level1=0 eg3_level2=1 eg3_level3=0.4156189 eg3_level4=0 eg3_level5=0 amplitude_cc16=83.4645669 ampeg_attack=0 ampeg_release=0.0510104 eg4_time1=0 eg4_time2=0 eg4_time3=0.0708059 eg4_time4=0.7397549 eg4_time5=0.0510104 eg4_level1=1 eg4_level2=1 eg4_level3=1 eg4_level4=1 eg4_level5=1
<region>sample=../Sample/Wave84.wav lokey=96 hikey=96 pitch_keycenter=66 tune=-554 loop_mode=one_shot pan=0 eg2_cutoff=5472 eg2_sustain=4 eg2_time1=0 eg2_time2=0 eg2_time3=0.0489896 eg2_time4=0 eg2_time5=0 eg2_level1=0 eg2_level2=1 eg2_level3=0.9055118 eg2_level4=0.9055118 eg2_level5=1 eg2_cutoff_curvecc131=201 eg2_cutoff_oncc131=1042.2857143 eg3_amplitude=100 eg3_sustain=4 eg3_time1=0 eg3_time2=0 eg3_time3=0.0686478 eg3_time4=0.7172078 eg3_time5=0.0494556 eg3_level1=0 eg3_level2=1 eg3_level3=0.4156189 eg3_level4=0 eg3_level5=0 amplitude_cc16=83.4645669 ampeg_attack=0 ampeg_release=0.0494556 eg4_time1=0 eg4_time2=0 eg4_time3=0.0686478 eg4_time4=0.7172078 eg4_time5=0.0494556 eg4_level1=1 eg4_level2=1 eg4_level3=1 eg4_level4=1 eg4_level5=1
<region>sample=../Sample/Wave84.wav lokey=97 hikey=97 pitch_keycenter=66 tune=-554 loop_mode=one_shot pan=0 eg2_cutoff=5472 eg2_sustain=4 eg2_time1=0 eg2_time2=0 eg2_time3=0.0489896 eg2_time4=0 eg2_time5=0 eg2_level1=0 eg2_level2=1 eg2_level3=0.9055118 eg2_level4=0.9055118 eg2_level5=1 eg2_cutoff_curvecc131=201 eg2_cutoff_oncc131=1042.2857143 eg3_amplitude=100 eg3_sustain=4 eg3_time1=0 eg3_time2=0 eg3_time3=0.0665554 eg3_time4=0.6953479 eg3_time5=0.0479482 eg3_level1=0 eg3_level2=1 eg3_level3=0.4156189 eg3_level4=0 eg3_level5=0 amplitude_cc16=83.4645669 ampeg_attack=0 ampeg_release=0.0479482 eg4_time1=0 eg4_time2=0 eg4_time3=0.0665554 eg4_time4=0.6953479 eg4_time5=0.0479482 eg4_level1=1 eg4_level2=1 eg4_level3=1 eg4_level4=1 eg4_level5=1
<region>sample=../Sample/Wave84.wav lokey=98 hikey=98 pitch_keycenter=66 tune=-554 loop_mode=one_shot pan=0 eg2_cutoff=5472 eg2_sustain=4 eg2_time1=0 eg2_time2=0 eg2_time3=0.0489896 eg2_time4=0 eg2_time5=0 eg2_level1=0 eg2_level2=1 eg2_level3=0.9055118 eg2_level4=0.9055118 eg2_level5=1 eg2_cutoff_curvecc131=201 eg2_cutoff_oncc131=1042.2857143 eg3_amplitude=100 eg3_sustain=4 eg3_time1=0 eg3_time2=0 eg3_time3=0.0645269 eg3_time4=0.6741543 eg3_time5=0.0464868 eg3_level1=0 eg3_level2=1 eg3_level3=0.4156189 eg3_level4=0 eg3_level5=0 amplitude_cc16=83.4645669 ampeg_attack=0 ampeg_release=0.0464868 eg4_time1=0 eg4_time2=0 eg4_time3=0.0645269 eg4_time4=0.6741543 eg4_time5=0.0464868 eg4_level1=1 eg4_level2=1 eg4_level3=1 eg4_level4=1 eg4_level5=1
<region>sample=../Sample/Wave84.wav lokey=99 hikey=99 pitch_keycenter=66 tune=-554 loop_mode=one_shot pan=0 eg2_cutoff=5472 eg2_sustain=4 eg2_time1=0 eg2_time2=0 eg2_time3=0.0489896 eg2_time4=0 eg2_time5=0 eg2_level1=0 eg2_level2=1 eg2_level3=0.9055118 eg2_level4=0.9055118 eg2_level5=1 eg2_cutoff_curvecc131=201 eg2_cutoff_oncc131=1042.2857143 eg3_amplitude=100 eg3_sustain=4 eg3_time1=0 eg3_time2=0 eg3_time3=0.0625602 eg3_time4=0.6536066 eg3_time5=0.0450699 eg3_level1=0 eg3_level2=1 eg3_level3=0.4156189 eg3_level4=0 eg3_level5=0 amplitude_cc16=83.4645669 ampeg_attack=0 ampeg_release=0.0450699 eg4_time1=0 eg4_time2=0 eg4_time3=0.0625602 eg4_time4=0.6536066 eg4_time5=0.0450699 eg4_level1=1 eg4_level2=1 eg4_level3=1 eg4_level4=1 eg4_level5=1
<region>sample=../Sample/Wave84.wav lokey=100 hikey=100 pitch_keycenter=66 tune=-554 loop_mode=one_shot pan=0 eg2_cutoff=5472 eg2_sustain=4 eg2_time1=0 eg2_time2=0 eg2_time3=0.0489896 eg2_time4=0 eg2_time5=0 eg2_level1=0 eg2_level2=1 eg2_level3=0.9055118 eg2_level4=0.9055118 eg2_level5=1 eg2_cutoff_curvecc131=201 eg2_cutoff_oncc131=1042.2857143 eg3_amplitude=100 eg3_sustain=4 eg3_time1=0 eg3_time2=0 eg3_time3=0.0606534 eg3_time4=0.6336852 eg3_time5=0.0436963 eg3_level1=0 eg3_level2=1 eg3_level3=0.4156189 eg3_level4=0 eg3_level5=0 amplitude_cc16=83.4645669 ampeg_attack=0 ampeg_release=0.0436963 eg4_time1=0 eg4_time2=0 eg4_time3=0.0606534 eg4_time4=0.6336852 eg4_time5=0.0436963 eg4_level1=1 eg4_level2=1 eg4_level3=1 eg4_level4=1 eg4_level5=1
<region>sample=../Sample/Wave84.wav lokey=101 hikey=101 pitch_keycenter=66 tune=-554 loop_mode=one_shot pan=0 eg2_cutoff=5472 eg2_sustain=4 eg2_time1=0 eg2_time2=0 eg2_time3=0.0489896 eg2_time4=0 eg2_time5=0 eg2_level1=0 eg2_level2=1 eg2_level3=0.9055118 eg2_level4=0.9055118 eg2_level5=1 eg2_cutoff_curvecc131=201 eg2_cutoff_oncc131=1042.2857143 eg3_amplitude=100 eg3_sustain=4 eg3_time1=0 eg3_time2=0 eg3_time3=0.0588047 eg3_time4=0.614371 eg3_time5=0.0423644 eg3_level1=0 eg3_level2=1 eg3_level3=0.4156189 eg3_level4=0 eg3_level5=0 amplitude_cc16=83.4645669 ampeg_attack=0 ampeg_release=0.0423644 eg4_time1=0 eg4_time2=0 eg4_time3=0.0588047 eg4_time4=0.614371 eg4_time5=0.0423644 eg4_level1=1 eg4_level2=1 eg4_level3=1 eg4_level4=1 eg4_level5=1
<region>sample=../Sample/Wave84.wav lokey=102 hikey=102 pitch_keycenter=66 tune=-554 loop_mode=one_shot pan=0 eg2_cutoff=5472 eg2_sustain=4 eg2_time1=0 eg2_time2=0 eg2_time3=0.0489896 eg2_time4=0 eg2_time5=0 eg2_level1=0 eg2_level2=1 eg2_level3=0.9055118 eg2_level4=0.9055118 eg2_level5=1 eg2_cutoff_curvecc131=201 eg2_cutoff_oncc131=1042.2857143 eg3_amplitude=100 eg3_sustain=4 eg3_time1=0 eg3_time2=0 eg3_time3=0.0570124 eg3_time4=0.5956455 eg3_time5=0.0410732 eg3_level1=0 eg3_level2=1 eg3_level3=0.4156189 eg3_level4=0 eg3_level5=0 amplitude_cc16=83.4645669 ampeg_attack=0 ampeg_release=0.0410732 eg4_time1=0 eg4_time2=0 eg4_time3=0.0570124 eg4_time4=0.5956455 eg4_time5=0.0410732 eg4_level1=1 eg4_level2=1 eg4_level3=1 eg4_level4=1 eg4_level5=1
<region>sample=../Sample/Wave84.wav lokey=103 hikey=103 pitch_keycenter=66 tune=-554 loop_mode=one_shot pan=0 eg2_cutoff=5472 eg2_sustain=4 eg2_time1=0 eg2_time2=0 eg2_time3=0.0489896 eg2_time4=0 eg2_time5=0 eg2_level1=0 eg2_level2=1 eg2_level3=0.9055118 eg2_level4=0.9055118 eg2_level5=1 eg2_cutoff_curvecc131=201 eg2_cutoff_oncc131=1042.2857143 eg3_amplitude=100 eg3_sustain=4 eg3_time1=0 eg3_time2=0 eg3_time3=0.0552747 eg3_time4=0.5774907 eg3_time5=0.0398213 eg3_level1=0 eg3_level2=1 eg3_level3=0.4156189 eg3_level4=0 eg3_level5=0 amplitude_cc16=83.4645669 ampeg_attack=0 ampeg_release=0.0398213 eg4_time1=0 eg4_time2=0 eg4_time3=0.0552747 eg4_time4=0.5774907 eg4_time5=0.0398213 eg4_level1=1 eg4_level2=1 eg4_level3=1 eg4_level4=1 eg4_level5=1
<region>sample=../Sample/Wave84.wav lokey=104 hikey=104 pitch_keycenter=66 tune=-554 loop_mode=one_shot pan=0 eg2_cutoff=5472 eg2_sustain=4 eg2_time1=0 eg2_time2=0 eg2_time3=0.0489896 eg2_time4=0 eg2_time5=0 eg2_level1=0 eg2_level2=1 eg2_level3=0.9055118 eg2_level4=0.9055118 eg2_level5=1 eg2_cutoff_curvecc131=201 eg2_cutoff_oncc131=1042.2857143 eg3_amplitude=100 eg3_sustain=4 eg3_time1=0 eg3_time2=0 eg3_time3=0.05359 eg3_time4=0.5598893 eg3_time5=0.0386076 eg3_level1=0 eg3_level2=1 eg3_level3=0.4156189 eg3_level4=0 eg3_level5=0 amplitude_cc16=83.4645669 ampeg_attack=0 ampeg_release=0.0386076 eg4_time1=0 eg4_time2=0 eg4_time3=0.05359 eg4_time4=0.5598893 eg4_time5=0.0386076 eg4_level1=1 eg4_level2=1 eg4_level3=1 eg4_level4=1 eg4_level5=1
<region>sample=../Sample/Wave84.wav lokey=105 hikey=105 pitch_keycenter=66 tune=-554 loop_mode=one_shot pan=0 eg2_cutoff=5472 eg2_sustain=4 eg2_time1=0 eg2_time2=0 eg2_time3=0.0489896 eg2_time4=0 eg2_time5=0 eg2_level1=0 eg2_level2=1 eg2_level3=0.9055118 eg2_level4=0.9055118 eg2_level5=1 eg2_cutoff_curvecc131=201 eg2_cutoff_oncc131=1042.2857143 eg3_amplitude=100 eg3_sustain=4 eg3_time1=0 eg3_time2=0 eg3_time3=0.0519566 eg3_time4=0.5428243 eg3_time5=0.0374309 eg3_level1=0 eg3_level2=1 eg3_level3=0.4156189 eg3_level4=0 eg3_level5=0 amplitude_cc16=83.4645669 ampeg_attack=0 ampeg_release=0.0374309 eg4_time1=0 eg4_time2=0 eg4_time3=0.0519566 eg4_time4=0.5428243 eg4_time5=0.0374309 eg4_level1=1 eg4_level2=1 eg4_level3=1 eg4_level4=1 eg4_level5=1
<region>sample=../Sample/Wave84.wav lokey=106 hikey=106 pitch_keycenter=66 tune=-554 loop_mode=one_shot pan=0 eg2_cutoff=5472 eg2_sustain=4 eg2_time1=0 eg2_time2=0 eg2_time3=0.0489896 eg2_time4=0 eg2_time5=0 eg2_level1=0 eg2_level2=1 eg2_level3=0.9055118 eg2_level4=0.9055118 eg2_level5=1 eg2_cutoff_curvecc131=201 eg2_cutoff_oncc131=1042.2857143 eg3_amplitude=100 eg3_sustain=4 eg3_time1=0 eg3_time2=0 eg3_time3=0.050373 eg3_time4=0.5262795 eg3_time5=0.03629 eg3_level1=0 eg3_level2=1 eg3_level3=0.4156189 eg3_level4=0 eg3_level5=0 amplitude_cc16=83.4645669 ampeg_attack=0 ampeg_release=0.03629 eg4_time1=0 eg4_time2=0 eg4_time3=0.050373 eg4_time4=0.5262795 eg4_time5=0.03629 eg4_level1=1 eg4_level2=1 eg4_level3=1 eg4_level4=1 eg4_level5=1
<region>sample=../Sample/Wave84.wav lokey=107 hikey=107 pitch_keycenter=66 tune=-554 loop_mode=one_shot pan=0 eg2_cutoff=5472 eg2_sustain=4 eg2_time1=0 eg2_time2=0 eg2_time3=0.0489896 eg2_time4=0 eg2_time5=0 eg2_level1=0 eg2_level2=1 eg2_level3=0.9055118 eg2_level4=0.9055118 eg2_level5=1 eg2_cutoff_curvecc131=201 eg2_cutoff_oncc131=1042.2857143 eg3_amplitude=100 eg3_sustain=4 eg3_time1=0 eg3_time2=0 eg3_time3=0.0488377 eg3_time4=0.5102389 eg3_time5=0.0351839 eg3_level1=0 eg3_level2=1 eg3_level3=0.4156189 eg3_level4=0 eg3_level5=0 amplitude_cc16=83.4645669 ampeg_attack=0 ampeg_release=0.0351839 eg4_time1=0 eg4_time2=0 eg4_time3=0.0488377 eg4_time4=0.5102389 eg4_time5=0.0351839 eg4_level1=1 eg4_level2=1 eg4_level3=1 eg4_level4=1 eg4_level5=1
<region>sample=../Sample/Wave84.wav lokey=108 hikey=108 pitch_keycenter=66 tune=-554 loop_mode=one_shot pan=0 eg2_cutoff=5472 eg2_sustain=4 eg2_time1=0 eg2_time2=0 eg2_time3=0.0489896 eg2_time4=0 eg2_time5=0 eg2_level1=0 eg2_level2=1 eg2_level3=0.9055118 eg2_level4=0.9055118 eg2_level5=1 eg2_cutoff_curvecc131=201 eg2_cutoff_oncc131=1042.2857143 eg3_amplitude=100 eg3_sustain=4 eg3_time1=0 eg3_time2=0 eg3_time3=0.0473491 eg3_time4=0.4946873 eg3_time5=0.0341115 eg3_level1=0 eg3_level2=1 eg3_level3=0.4156189 eg3_level4=0 eg3_level5=0 amplitude_cc16=83.4645669 ampeg_attack=0 ampeg_release=0.0341115 eg4_time1=0 eg4_time2=0 eg4_time3=0.0473491 eg4_time4=0.4946873 eg4_time5=0.0341115 eg4_level1=1 eg4_level2=1 eg4_level3=1 eg4_level4=1 eg4_level5=1
<region>sample=../Sample/Wave84.wav lokey=109 hikey=109 pitch_keycenter=66 tune=-554 loop_mode=one_shot pan=0 eg2_cutoff=5472 eg2_sustain=4 eg2_time1=0 eg2_time2=0 eg2_time3=0.0489896 eg2_time4=0 eg2_time5=0 eg2_level1=0 eg2_level2=1 eg2_level3=0.9055118 eg2_level4=0.9055118 eg2_level5=1 eg2_cutoff_curvecc131=201 eg2_cutoff_oncc131=1042.2857143 eg3_amplitude=100 eg3_sustain=4 eg3_time1=0 eg3_time2=0 eg3_time3=0.045906 eg3_time4=0.4796096 eg3_time5=0.0330719 eg3_level1=0 eg3_level2=1 eg3_level3=0.4156189 eg3_level4=0 eg3_level5=0 amplitude_cc16=83.4645669 ampeg_attack=0 ampeg_release=0.0330719 eg4_time1=0 eg4_time2=0 eg4_time3=0.045906 eg4_time4=0.4796096 eg4_time5=0.0330719 eg4_level1=1 eg4_level2=1 eg4_level3=1 eg4_level4=1 eg4_level5=1
<region>sample=../Sample/Wave84.wav lokey=110 hikey=110 pitch_keycenter=66 tune=-554 loop_mode=one_shot pan=0 eg2_cutoff=5472 eg2_sustain=4 eg2_time1=0 eg2_time2=0 eg2_time3=0.0489896 eg2_time4=0 eg2_time5=0 eg2_level1=0 eg2_level2=1 eg2_level3=0.9055118 eg2_level4=0.9055118 eg2_level5=1 eg2_cutoff_curvecc131=201 eg2_cutoff_oncc131=1042.2857143 eg3_amplitude=100 eg3_sustain=4 eg3_time1=0 eg3_time2=0 eg3_time3=0.0445068 eg3_time4=0.4649915 eg3_time5=0.0320638 eg3_level1=0 eg3_level2=1 eg3_level3=0.4156189 eg3_level4=0 eg3_level5=0 amplitude_cc16=83.4645669 ampeg_attack=0 ampeg_release=0.0320638 eg4_time1=0 eg4_time2=0 eg4_time3=0.0445068 eg4_time4=0.4649915 eg4_time5=0.0320638 eg4_level1=1 eg4_level2=1 eg4_level3=1 eg4_level4=1 eg4_level5=1
<region>sample=../Sample/Wave84.wav lokey=111 hikey=111 pitch_keycenter=66 tune=-554 loop_mode=one_shot pan=0 eg2_cutoff=5472 eg2_sustain=4 eg2_time1=0 eg2_time2=0 eg2_time3=0.0489896 eg2_time4=0 eg2_time5=0 eg2_level1=0 eg2_level2=1 eg2_level3=0.9055118 eg2_level4=0.9055118 eg2_level5=1 eg2_cutoff_curvecc131=201 eg2_cutoff_oncc131=1042.2857143 eg3_amplitude=100 eg3_sustain=4 eg3_time1=0 eg3_time2=0 eg3_time3=0.0431503 eg3_time4=0.450819 eg3_time5=0.0310866 eg3_level1=0 eg3_level2=1 eg3_level3=0.4156189 eg3_level4=0 eg3_level5=0 amplitude_cc16=83.4645669 ampeg_attack=0 ampeg_release=0.0310866 eg4_time1=0 eg4_time2=0 eg4_time3=0.0431503 eg4_time4=0.450819 eg4_time5=0.0310866 eg4_level1=1 eg4_level2=1 eg4_level3=1 eg4_level4=1 eg4_level5=1
<region>sample=../Sample/Wave84.wav lokey=112 hikey=112 pitch_keycenter=66 tune=-554 loop_mode=one_shot pan=0 eg2_cutoff=5472 eg2_sustain=4 eg2_time1=0 eg2_time2=0 eg2_time3=0.0489896 eg2_time4=0 eg2_time5=0 eg2_level1=0 eg2_level2=1 eg2_level3=0.9055118 eg2_level4=0.9055118 eg2_level5=1 eg2_cutoff_curvecc131=201 eg2_cutoff_oncc131=1042.2857143 eg3_amplitude=100 eg3_sustain=4 eg3_time1=0 eg3_time2=0 eg3_time3=0.0418351 eg3_time4=0.4370784 eg3_time5=0.0301391 eg3_level1=0 eg3_level2=1 eg3_level3=0.4156189 eg3_level4=0 eg3_level5=0 amplitude_cc16=83.4645669 ampeg_attack=0 ampeg_release=0.0301391 eg4_time1=0 eg4_time2=0 eg4_time3=0.0418351 eg4_time4=0.4370784 eg4_time5=0.0301391 eg4_level1=1 eg4_level2=1 eg4_level3=1 eg4_level4=1 eg4_level5=1
<region>sample=../Sample/Wave84.wav lokey=113 hikey=113 pitch_keycenter=66 tune=-554 loop_mode=one_shot pan=0 eg2_cutoff=5472 eg2_sustain=4 eg2_time1=0 eg2_time2=0 eg2_time3=0.0489896 eg2_time4=0 eg2_time5=0 eg2_level1=0 eg2_level2=1 eg2_level3=0.9055118 eg2_level4=0.9055118 eg2_level5=1 eg2_cutoff_curvecc131=201 eg2_cutoff_oncc131=1042.2857143 eg3_amplitude=100 eg3_sustain=4 eg3_time1=0 eg3_time2=0 eg3_time3=0.04056 eg3_time4=0.4237566 eg3_time5=0.0292205 eg3_level1=0 eg3_level2=1 eg3_level3=0.4156189 eg3_level4=0 eg3_level5=0 amplitude_cc16=83.4645669 ampeg_attack=0 ampeg_release=0.0292205 eg4_time1=0 eg4_time2=0 eg4_time3=0.04056 eg4_time4=0.4237566 eg4_time5=0.0292205 eg4_level1=1 eg4_level2=1 eg4_level3=1 eg4_level4=1 eg4_level5=1
<region>sample=../Sample/Wave84.wav lokey=114 hikey=114 pitch_keycenter=66 tune=-554 loop_mode=one_shot pan=0 eg2_cutoff=5472 eg2_sustain=4 eg2_time1=0 eg2_time2=0 eg2_time3=0.0489896 eg2_time4=0 eg2_time5=0 eg2_level1=0 eg2_level2=1 eg2_level3=0.9055118 eg2_level4=0.9055118 eg2_level5=1 eg2_cutoff_curvecc131=201 eg2_cutoff_oncc131=1042.2857143 eg3_amplitude=100 eg3_sustain=4 eg3_time1=0 eg3_time2=0 eg3_time3=0.0393238 eg3_time4=0.4108409 eg3_time5=0.0283298 eg3_level1=0 eg3_level2=1 eg3_level3=0.4156189 eg3_level4=0 eg3_level5=0 amplitude_cc16=83.4645669 ampeg_attack=0 ampeg_release=0.0283298 eg4_time1=0 eg4_time2=0 eg4_time3=0.0393238 eg4_time4=0.4108409 eg4_time5=0.0283298 eg4_level1=1 eg4_level2=1 eg4_level3=1 eg4_level4=1 eg4_level5=1
<region>sample=../Sample/Wave84.wav lokey=115 hikey=115 pitch_keycenter=66 tune=-554 loop_mode=one_shot pan=0 eg2_cutoff=5472 eg2_sustain=4 eg2_time1=0 eg2_time2=0 eg2_time3=0.0489896 eg2_time4=0 eg2_time5=0 eg2_level1=0 eg2_level2=1 eg2_level3=0.9055118 eg2_level4=0.9055118 eg2_level5=1 eg2_cutoff_curvecc131=201 eg2_cutoff_oncc131=1042.2857143 eg3_amplitude=100 eg3_sustain=4 eg3_time1=0 eg3_time2=0 eg3_time3=0.0381252 eg3_time4=0.3983188 eg3_time5=0.0274664 eg3_level1=0 eg3_level2=1 eg3_level3=0.4156189 eg3_level4=0 eg3_level5=0 amplitude_cc16=83.4645669 ampeg_attack=0 ampeg_release=0.0274664 eg4_time1=0 eg4_time2=0 eg4_time3=0.0381252 eg4_time4=0.3983188 eg4_time5=0.0274664 eg4_level1=1 eg4_level2=1 eg4_level3=1 eg4_level4=1 eg4_level5=1
<region>sample=../Sample/Wave84.wav lokey=116 hikey=116 pitch_keycenter=66 tune=-554 loop_mode=one_shot pan=0 eg2_cutoff=5472 eg2_sustain=4 eg2_time1=0 eg2_time2=0 eg2_time3=0.0489896 eg2_time4=0 eg2_time5=0 eg2_level1=0 eg2_level2=1 eg2_level3=0.9055118 eg2_level4=0.9055118 eg2_level5=1 eg2_cutoff_curvecc131=201 eg2_cutoff_oncc131=1042.2857143 eg3_amplitude=100 eg3_sustain=4 eg3_time1=0 eg3_time2=0 eg3_time3=0.0369632 eg3_time4=0.3861783 eg3_time5=0.0266292 eg3_level1=0 eg3_level2=1 eg3_level3=0.4156189 eg3_level4=0 eg3_level5=0 amplitude_cc16=83.4645669 ampeg_attack=0 ampeg_release=0.0266292 eg4_time1=0 eg4_time2=0 eg4_time3=0.0369632 eg4_time4=0.3861783 eg4_time5=0.0266292 eg4_level1=1 eg4_level2=1 eg4_level3=1 eg4_level4=1 eg4_level5=1
<region>sample=../Sample/Wave84.wav lokey=117 hikey=117 pitch_keycenter=66 tune=-554 loop_mode=one_shot pan=0 eg2_cutoff=5472 eg2_sustain=4 eg2_time1=0 eg2_time2=0 eg2_time3=0.0489896 eg2_time4=0 eg2_time5=0 eg2_level1=0 eg2_level2=1 eg2_level3=0.9055118 eg2_level4=0.9055118 eg2_level5=1 eg2_cutoff_curvecc131=201 eg2_cutoff_oncc131=1042.2857143 eg3_amplitude=100 eg3_sustain=4 eg3_time1=0 eg3_time2=0 eg3_time3=0.0358366 eg3_time4=0.3744079 eg3_time5=0.0258176 eg3_level1=0 eg3_level2=1 eg3_level3=0.4156189 eg3_level4=0 eg3_level5=0 amplitude_cc16=83.4645669 ampeg_attack=0 ampeg_release=0.0258176 eg4_time1=0 eg4_time2=0 eg4_time3=0.0358366 eg4_time4=0.3744079 eg4_time5=0.0258176 eg4_level1=1 eg4_level2=1 eg4_level3=1 eg4_level4=1 eg4_level5=1
<region>sample=../Sample/Wave84.wav lokey=118 hikey=118 pitch_keycenter=66 tune=-554 loop_mode=one_shot pan=0 eg2_cutoff=5472 eg2_sustain=4 eg2_time1=0 eg2_time2=0 eg2_time3=0.0489896 eg2_time4=0 eg2_time5=0 eg2_level1=0 eg2_level2=1 eg2_level3=0.9055118 eg2_level4=0.9055118 eg2_level5=1 eg2_cutoff_curvecc131=201 eg2_cutoff_oncc131=1042.2857143 eg3_amplitude=100 eg3_sustain=4 eg3_time1=0 eg3_time2=0 eg3_time3=0.0347443 eg3_time4=0.3629963 eg3_time5=0.0250307 eg3_level1=0 eg3_level2=1 eg3_level3=0.4156189 eg3_level4=0 eg3_level5=0 amplitude_cc16=83.4645669 ampeg_attack=0 ampeg_release=0.0250307 eg4_time1=0 eg4_time2=0 eg4_time3=0.0347443 eg4_time4=0.3629963 eg4_time5=0.0250307 eg4_level1=1 eg4_level2=1 eg4_level3=1 eg4_level4=1 eg4_level5=1
<region>sample=../Sample/Wave84.wav lokey=119 hikey=119 pitch_keycenter=66 tune=-554 loop_mode=one_shot pan=0 eg2_cutoff=5472 eg2_sustain=4 eg2_time1=0 eg2_time2=0 eg2_time3=0.0489896 eg2_time4=0 eg2_time5=0 eg2_level1=0 eg2_level2=1 eg2_level3=0.9055118 eg2_level4=0.9055118 eg2_level5=1 eg2_cutoff_curvecc131=201 eg2_cutoff_oncc131=1042.2857143 eg3_amplitude=100 eg3_sustain=4 eg3_time1=0 eg3_time2=0 eg3_time3=0.0336853 eg3_time4=0.3519325 eg3_time5=0.0242678 eg3_level1=0 eg3_level2=1 eg3_level3=0.4156189 eg3_level4=0 eg3_level5=0 amplitude_cc16=83.4645669 ampeg_attack=0 ampeg_release=0.0242678 eg4_time1=0 eg4_time2=0 eg4_time3=0.0336853 eg4_time4=0.3519325 eg4_time5=0.0242678 eg4_level1=1 eg4_level2=1 eg4_level3=1 eg4_level4=1 eg4_level5=1
<region>sample=../Sample/Wave84.wav lokey=120 hikey=120 pitch_keycenter=66 tune=-554 loop_mode=one_shot pan=0 eg2_cutoff=5472 eg2_sustain=4 eg2_time1=0 eg2_time2=0 eg2_time3=0.0489896 eg2_time4=0 eg2_time5=0 eg2_level1=0 eg2_level2=1 eg2_level3=0.9055118 eg2_level4=0.9055118 eg2_level5=1 eg2_cutoff_curvecc131=201 eg2_cutoff_oncc131=1042.2857143 eg3_amplitude=100 eg3_sustain=4 eg3_time1=0 eg3_time2=0 eg3_time3=0.0326586 eg3_time4=0.3412059 eg3_time5=0.0235281 eg3_level1=0 eg3_level2=1 eg3_level3=0.4156189 eg3_level4=0 eg3_level5=0 amplitude_cc16=83.4645669 ampeg_attack=0 ampeg_release=0.0235281 eg4_time1=0 eg4_time2=0 eg4_time3=0.0326586 eg4_time4=0.3412059 eg4_time5=0.0235281 eg4_level1=1 eg4_level2=1 eg4_level3=1 eg4_level4=1 eg4_level5=1
<region>sample=../Sample/Wave84.wav lokey=121 hikey=121 pitch_keycenter=66 tune=-554 loop_mode=one_shot pan=0 eg2_cutoff=5472 eg2_sustain=4 eg2_time1=0 eg2_time2=0 eg2_time3=0.0489896 eg2_time4=0 eg2_time5=0 eg2_level1=0 eg2_level2=1 eg2_level3=0.9055118 eg2_level4=0.9055118 eg2_level5=1 eg2_cutoff_curvecc131=201 eg2_cutoff_oncc131=1042.2857143 eg3_amplitude=100 eg3_sustain=4 eg3_time1=0 eg3_time2=0 eg3_time3=0.0316632 eg3_time4=0.3308062 eg3_time5=0.022811 eg3_level1=0 eg3_level2=1 eg3_level3=0.4156189 eg3_level4=0 eg3_level5=0 amplitude_cc16=83.4645669 ampeg_attack=0 ampeg_release=0.022811 eg4_time1=0 eg4_time2=0 eg4_time3=0.0316632 eg4_time4=0.3308062 eg4_time5=0.022811 eg4_level1=1 eg4_level2=1 eg4_level3=1 eg4_level4=1 eg4_level5=1
<region>sample=../Sample/Wave84.wav lokey=122 hikey=122 pitch_keycenter=66 tune=-554 loop_mode=one_shot pan=0 eg2_cutoff=5472 eg2_sustain=4 eg2_time1=0 eg2_time2=0 eg2_time3=0.0489896 eg2_time4=0 eg2_time5=0 eg2_level1=0 eg2_level2=1 eg2_level3=0.9055118 eg2_level4=0.9055118 eg2_level5=1 eg2_cutoff_curvecc131=201 eg2_cutoff_oncc131=1042.2857143 eg3_amplitude=100 eg3_sustain=4 eg3_time1=0 eg3_time2=0 eg3_time3=0.0306981 eg3_time4=0.3207235 eg3_time5=0.0221157 eg3_level1=0 eg3_level2=1 eg3_level3=0.4156189 eg3_level4=0 eg3_level5=0 amplitude_cc16=83.4645669 ampeg_attack=0 ampeg_release=0.0221157 eg4_time1=0 eg4_time2=0 eg4_time3=0.0306981 eg4_time4=0.3207235 eg4_time5=0.0221157 eg4_level1=1 eg4_level2=1 eg4_level3=1 eg4_level4=1 eg4_level5=1
<region>sample=../Sample/Wave84.wav lokey=123 hikey=123 pitch_keycenter=66 tune=-554 loop_mode=one_shot pan=0 eg2_cutoff=5472 eg2_sustain=4 eg2_time1=0 eg2_time2=0 eg2_time3=0.0489896 eg2_time4=0 eg2_time5=0 eg2_level1=0 eg2_level2=1 eg2_level3=0.9055118 eg2_level4=0.9055118 eg2_level5=1 eg2_cutoff_curvecc131=201 eg2_cutoff_oncc131=1042.2857143 eg3_amplitude=100 eg3_sustain=4 eg3_time1=0 eg3_time2=0 eg3_time3=0.0297625 eg3_time4=0.3109481 eg3_time5=0.0214417 eg3_level1=0 eg3_level2=1 eg3_level3=0.4156189 eg3_level4=0 eg3_level5=0 amplitude_cc16=83.4645669 ampeg_attack=0 ampeg_release=0.0214417 eg4_time1=0 eg4_time2=0 eg4_time3=0.0297625 eg4_time4=0.3109481 eg4_time5=0.0214417 eg4_level1=1 eg4_level2=1 eg4_level3=1 eg4_level4=1 eg4_level5=1
<region>sample=../Sample/Wave84.wav lokey=124 hikey=124 pitch_keycenter=66 tune=-554 loop_mode=one_shot pan=0 eg2_cutoff=5472 eg2_sustain=4 eg2_time1=0 eg2_time2=0 eg2_time3=0.0489896 eg2_time4=0 eg2_time5=0 eg2_level1=0 eg2_level2=1 eg2_level3=0.9055118 eg2_level4=0.9055118 eg2_level5=1 eg2_cutoff_curvecc131=201 eg2_cutoff_oncc131=1042.2857143 eg3_amplitude=100 eg3_sustain=4 eg3_time1=0 eg3_time2=0 eg3_time3=0.0288554 eg3_time4=0.3014707 eg3_time5=0.0207881 eg3_level1=0 eg3_level2=1 eg3_level3=0.4156189 eg3_level4=0 eg3_level5=0 amplitude_cc16=83.4645669 ampeg_attack=0 ampeg_release=0.0207881 eg4_time1=0 eg4_time2=0 eg4_time3=0.0288554 eg4_time4=0.3014707 eg4_time5=0.0207881 eg4_level1=1 eg4_level2=1 eg4_level3=1 eg4_level4=1 eg4_level5=1
<region>sample=../Sample/Wave84.wav lokey=125 hikey=125 pitch_keycenter=66 tune=-554 loop_mode=one_shot pan=0 eg2_cutoff=5472 eg2_sustain=4 eg2_time1=0 eg2_time2=0 eg2_time3=0.0489896 eg2_time4=0 eg2_time5=0 eg2_level1=0 eg2_level2=1 eg2_level3=0.9055118 eg2_level4=0.9055118 eg2_level5=1 eg2_cutoff_curvecc131=201 eg2_cutoff_oncc131=1042.2857143 eg3_amplitude=100 eg3_sustain=4 eg3_time1=0 eg3_time2=0 eg3_time3=0.0279759 eg3_time4=0.2922821 eg3_time5=0.0201545 eg3_level1=0 eg3_level2=1 eg3_level3=0.4156189 eg3_level4=0 eg3_level5=0 amplitude_cc16=83.4645669 ampeg_attack=0 ampeg_release=0.0201545 eg4_time1=0 eg4_time2=0 eg4_time3=0.0279759 eg4_time4=0.2922821 eg4_time5=0.0201545 eg4_level1=1 eg4_level2=1 eg4_level3=1 eg4_level4=1 eg4_level5=1
<region>sample=../Sample/Wave84.wav lokey=126 hikey=126 pitch_keycenter=66 tune=-554 loop_mode=one_shot pan=0 eg2_cutoff=5472 eg2_sustain=4 eg2_time1=0 eg2_time2=0 eg2_time3=0.0489896 eg2_time4=0 eg2_time5=0 eg2_level1=0 eg2_level2=1 eg2_level3=0.9055118 eg2_level4=0.9055118 eg2_level5=1 eg2_cutoff_curvecc131=201 eg2_cutoff_oncc131=1042.2857143 eg3_amplitude=100 eg3_sustain=4 eg3_time1=0 eg3_time2=0 eg3_time3=0.0271232 eg3_time4=0.2833736 eg3_time5=0.0195402 eg3_level1=0 eg3_level2=1 eg3_level3=0.4156189 eg3_level4=0 eg3_level5=0 amplitude_cc16=83.4645669 ampeg_attack=0 ampeg_release=0.0195402 eg4_time1=0 eg4_time2=0 eg4_time3=0.0271232 eg4_time4=0.2833736 eg4_time5=0.0195402 eg4_level1=1 eg4_level2=1 eg4_level3=1 eg4_level4=1 eg4_level5=1
<region>sample=../Sample/Wave84.wav lokey=127 hikey=127 pitch_keycenter=66 tune=-554 loop_mode=one_shot pan=0 eg2_cutoff=5472 eg2_sustain=4 eg2_time1=0 eg2_time2=0 eg2_time3=0.0489896 eg2_time4=0 eg2_time5=0 eg2_level1=0 eg2_level2=1 eg2_level3=0.9055118 eg2_level4=0.9055118 eg2_level5=1 eg2_cutoff_curvecc131=201 eg2_cutoff_oncc131=1042.2857143 eg3_amplitude=100 eg3_sustain=4 eg3_time1=0 eg3_time2=0 eg3_time3=0.0262965 eg3_time4=0.2747366 eg3_time5=0.0189447 eg3_level1=0 eg3_level2=1 eg3_level3=0.4156189 eg3_level4=0 eg3_level5=0 amplitude_cc16=83.4645669 ampeg_attack=0 ampeg_release=0.0189447 eg4_time1=0 eg4_time2=0 eg4_time3=0.0262965 eg4_time4=0.2747366 eg4_time5=0.0189447 eg4_level1=1 eg4_level2=1 eg4_level3=1 eg4_level4=1 eg4_level5=1
<curve>curve_index=77 v000=-1 v009=-0.2318432 v017=-0.1682223 v025=-0.1266754 v033=-0.0943052 v041=-0.0667365 v049=-0.0418818 v057=-0.0185085 v065=0.004257 v073=0.0271599 v081=0.0509737 v089=0.0766712 v097=0.1057219 v105=0.1408034 v113=0.1881379 v121=0.2706334 v127=1
<curve>curve_index=133 v000=-0.4724409 v127=0.5275591
<curve>curve_index=201 v000=-1 v127=0
<curve>curve_index=202 v000=-1 v001=-0.9997494 v009=-0.991513 v017=-0.9762171 v025=-0.9551519 v033=-0.92858 v041=-0.8964065 v049=-0.8583211 v057=-0.8138437 v065=-0.7623383 v073=-0.7030102 v081=-0.6348936 v089=-0.5568321 v097=-0.467451 v105=-0.3651233 v113=-0.2479268 v121=-0.1135922 v127=0
<curve>curve_index=203 v000=-1 v001=-1 v009=-0.9999675 v017=-0.9996583 v025=-0.9985752 v033=-0.9960114 v041=-0.9910577 v049=-0.9825829 v057=-0.9691807 v065=-0.9490722 v073=-0.9199401 v081=-0.8786619 v089=-0.82088 v097=-0.740303 v105=-0.6275479 v113=-0.4681713 v121=-0.2392198 v127=0
<curve>curve_index=204 v000=-1 v001=-0.9323558 v009=-0.741349 v017=-0.6263141 v025=-0.5373342 v033=-0.4635977 v041=-0.4002693 v049=-0.3446331 v057=-0.2949675 v065=-0.2500953 v073=-0.2091682 v081=-0.1715511 v089=-0.1367543 v097=-0.1043909 v105=-0.0741496 v113=-0.0457759 v121=-0.0190586 v127=0
<curve>curve_index=205 v000=-1 v001=-0.6880006 v009=-0.4427647 v017=-0.3466618 v025=-0.2834429 v033=-0.2361238 v041=-0.1983568 v049=-0.1670059 v057=-0.1402727 v065=-0.1170246 v073=-0.0964998 v081=-0.0781602 v089=-0.061612 v097=-0.0465575 v105=-0.0327669 v113=-0.0200585 v121=-0.0082866 v127=0
<curve>curve_index=206 v000=-1 v001=-0.9992164 v009=-0.9919382 v017=-0.9822354 v025=-0.9686809 v033=-0.9484937 v041=-0.9155493 v049=-0.8540328 v057=-0.7175582 v065=-0.4426581 v073=-0.2171001 v081=-0.1176907 v089=-0.0699434 v097=-0.0428826 v105=-0.0256514 v113=-0.0137704 v121=-0.0051009 v127=0
<curve>curve_index=207 v000=-1 v001=-0.9416361 v009=-0.7228567 v017=-0.6420575 v025=-0.5979344 v033=-0.568666 v041=-0.5466723 v049=-0.5285483 v057=-0.5124439 v065=-0.497147 v073=-0.4816686 v081=-0.4649713 v089=-0.4456677 v097=-0.4214805 v105=-0.3879226 v113=-0.3341321 v121=-0.2242261 v127=0
